<?xml version="1.0" encoding="UTF-8"?>
<!DOCTYPE svg PUBLIC "-//W3C//DTD SVG 1.1//EN" "http://www.w3.org/Graphics/SVG/1.1/DTD/svg11.dtd">
<!-- Creator: CorelDRAW -->
<svg xmlns="http://www.w3.org/2000/svg" xml:space="preserve" width="279.4mm" height="120.65mm" version="1.1" style="shape-rendering:geometricPrecision; text-rendering:geometricPrecision; image-rendering:optimizeQuality; fill-rule:evenodd; clip-rule:evenodd"
viewBox="0 0 27940 12065"
 xmlns:xlink="http://www.w3.org/1999/xlink"
 xmlns:xodm="http://www.corel.com/coreldraw/odm/2003">
 <defs>
  <style type="text/css">
   <![CDATA[
    .fil2 {fill:#020102}
    .fil36 {fill:#030202}
    .fil21 {fill:#050304}
    .fil22 {fill:#060505}
    .fil43 {fill:#090606}
    .fil40 {fill:#090708}
    .fil41 {fill:#0D0A0B}
    .fil42 {fill:#120D0D}
    .fil44 {fill:#29231C}
    .fil5 {fill:#29ABE2}
    .fil1 {fill:#B164A5}
    .fil15 {fill:#CCCCCC}
    .fil8 {fill:#CFA2C9}
    .fil33 {fill:#D2A5CB}
    .fil39 {fill:#D8D8D8}
    .fil30 {fill:#E2E2E2}
    .fil12 {fill:#E6E6E6}
    .fil4 {fill:#F094B0}
    .fil34 {fill:#F495B2}
    .fil28 {fill:#F7CAD9}
    .fil19 {fill:#F7F4F6}
    .fil6 {fill:#F8CADA}
    .fil29 {fill:#F8CBD3}
    .fil9 {fill:#F9CBD5}
    .fil32 {fill:#F9CCD1}
    .fil23 {fill:#FACCCD}
    .fil27 {fill:#FACDC9}
    .fil18 {fill:#FACEBD}
    .fil20 {fill:#FBCEC1}
    .fil31 {fill:#FBCEC5}
    .fil25 {fill:#FBD5D7}
    .fil13 {fill:#FBE3EA}
    .fil26 {fill:#FCCFB8}
    .fil37 {fill:#FCCFBD}
    .fil0 {fill:#FCD6B9}
    .fil11 {fill:#FDD1B2}
    .fil35 {fill:#FDD1B5}
    .fil16 {fill:#FDD3A3}
    .fil38 {fill:#FDF3EC}
    .fil7 {fill:#FDFDFD}
    .fil17 {fill:#FED2AA}
    .fil24 {fill:#FEFDFB}
    .fil10 {fill:#FFD4A2}
    .fil3 {fill:#FFF8C5}
    .fil14 {fill:#FFFFFD}
   ]]>
  </style>
 </defs>
 <g id="Layer_x0020_1">
  <metadata id="CorelCorpID_0Corel-Layer"/>
  <g id="_1635477979648">
   <path class="fil0" d="M10271.13 5536.6c-2.09,-1.44 -56.34,5.47 -13.33,-127.91 100.66,-312.13 551.82,-240.83 581.27,130.01 -60.93,-91.57 -65.18,-121.93 -143.48,-196.95 -44.14,-42.28 -172.44,-127.32 -244.35,-63.65 18.2,43.81 30.8,-38.41 -41.79,72.29l-128.17 288.86 -10.15 -102.65zm-136.1 -828.56c55.62,60.11 45.08,36.79 95.63,64.38l43.84 31.6c-322.04,-35.11 -300.49,-338.24 -53.86,-336.5l70.53 -99.64c32.53,95.39 -5.04,140.5 -57.79,176.17 -52.8,35.71 -31.97,1.02 -61.18,67.23l-37.17 96.76zm-1402.68 -541.41c191.53,-83.24 574.62,-145.99 806.8,-128.45l-806.8 128.45zm2403.15 -323.25c187.1,-98.73 720.1,-135.21 929.7,-47.51 -158.22,3.5 -316.6,-7.23 -480.33,-2.66 -167.37,4.68 -295.88,33.92 -449.37,50.17zm-150.07 -115.89c-37.51,-166.06 19.02,-366.93 97.73,-473.98l-97.73 473.98zm-2541.16 -403.23c210.24,-66.62 363.91,-99.62 559.67,-187.79 170,-76.56 319.88,-186.98 504.53,-248.54 -38.95,68.45 -146.55,142.64 -211.5,184.58 -176.52,114 -649.15,261.48 -852.7,251.75zm1170.39 -419.12c16.48,-17.61 6.77,-5.38 24.34,-24.45 23.17,-25.14 21.89,-31.16 58.36,-57.41 -14.79,87.9 -23.65,106.31 -117.07,123.01l34.37 -41.15zm1196.64 -131.91c-133.17,35.24 -189.71,-6.34 -243.49,-93.22 45.88,19.95 69.03,40.86 126.2,59.53 39.75,12.99 84.36,18.68 117.29,33.69zm1345.46 271.14c-238.71,78.11 -1109.99,-84.76 -1357.05,-380.31 461.63,127.91 544.47,331.74 1357.05,380.31zm-1683.36 -1077.18c-14.3,30.97 14.61,0.78 -24.61,40.96 -36.67,37.56 -12.88,11.63 -41.95,25.05 -53.86,3.39 -6.41,-30.38 -66.98,27.79 -51.84,49.79 -24.33,23.99 -32.23,63.54 -15.79,69.21 2.5,23.03 -92.34,104 -680.68,581.19 -1089.27,794.05 -2001.64,1088.11 -78.04,455.22 -108.02,690.01 61.33,1113.61 116.59,3.27 234.48,3.23 316.52,-53.94 -120.57,-41.16 -133.26,-11.81 -237.45,-92.49 90.1,21.89 159.19,64.65 256.29,20.14 40.63,-151.78 -22.21,-140.96 -26.53,-265.46l-26.23 -13.79c-26.48,-167.75 -2.58,-320.05 87.9,-412.92 44.17,-79.32 105.87,-134.81 185.02,-175.67l-61.88 95.98c-99.32,170.86 -146.41,345.23 -106.8,547.62 25.71,131.37 16.52,91.56 -25.5,219.74 295.58,-40.73 766.19,-191.09 1153.72,-140.07l-100.5 34.74 84.24 35.19 -93.68 40.53 41.99 59.01 -80.24 6.14c-0.43,188.2 -79.25,292.69 -115.78,455.26 -41.4,184.25 50.55,295.58 122.41,402.64 182.25,271.52 183.9,595.84 81.97,930.14 592.63,22.46 931.1,42.01 1507.1,-101.08 23.28,-162.66 126.47,-387.97 118.64,-508.63 -9.14,-140.98 -144.35,-306 -203.39,-402.37 -213.92,-349.14 136.7,-714.42 -19.53,-984.51l-175.65 19.69c-78.86,153.69 -162.87,105.76 -177.47,380.63 -76.38,-152.11 24.67,-283.45 58.65,-383.92l51.18 -0.81c41.33,-3.62 106.22,-38.31 154.31,-51.71l-72.26 -28.64 79.98 -33.11 -112.05 -27.87c244.86,-45.13 499.16,-77 749.71,-90.33 117.19,-6.25 292.9,4.02 398.61,-19.77 141.77,-31.9 194.03,-84.71 303.42,-131.98 -23.06,45.97 -14.71,36.32 -89.68,87.15 -28.57,19.38 -55.94,35.96 -88.66,60.11 140.12,30.56 161.01,48.6 376.68,-62.57 1.81,-229.23 -44.11,-523.03 -84.69,-747.27l-111.79 -519.06c-25.51,-88 -33.17,-72 -124.96,-102.66 -296.19,-98.93 -582.02,-266.21 -825.44,-436.58 -43.53,-30.47 -76.44,-54.47 -120.16,-90.06 -39.27,-31.96 -95.89,-72.21 -111.92,-114.03 -19.96,-84.51 -230.77,-225.42 -302.1,-280.9 -27.49,-21.38 -3.94,-8.4 -26.13,-21.64 -60.22,-35.94 -47.44,6.03 -127.88,88.11 -43.96,44.86 -51.64,67.63 -97.14,112.47l-169.29 186.73c-22.29,39.1 -11.25,-5.03 -15.14,48.76z"/>
   <path class="fil1" d="M10851.44 10120.5c-2.28,-0.69 -49.31,-10.23 -53.26,-11.09 -413.08,-89.47 -366.39,-402.74 -113.28,-415 341.34,-16.53 344.77,131.5 926.75,28.53 -349.13,204.12 -840.15,-14.99 -1022.02,93.77 -29.47,243.26 314.41,139.11 411.75,292.45 -10.27,80.77 -28.71,88.69 -101.42,117.26 -53.87,21.17 -99.5,27.15 -130,76.91 135.99,105.08 347.45,61.49 505.62,57.45 -37.51,2.1 -130.81,43.79 -219.23,48.59 -389.08,21.13 -517.92,-146.64 -153.93,-266.82l-50.98 -22.05zm-469.66 -1373.95c-137.19,-74.46 -92.27,-65.38 -83.72,-179.25 4.59,-61.11 -39.96,-44.72 6.74,-116.83 42.96,-66.33 48.07,2.88 32.81,-127.78 -26.22,-224.38 -39.93,-444.85 -46.77,-673.06 -3.21,-107.04 -11.47,-276.11 141.24,-200.44 83.98,41.62 53.02,212.52 57.19,297.61 10.48,213.69 55.75,460.4 61.81,649.86l134.18 45.4c-4.24,105.08 -35.44,106.38 -65.9,178.85 -55.2,131.36 24.38,156.64 19.56,296.59 -67.01,20.96 -183.47,25.23 -260.1,9.87 -10.79,-66.91 8.53,-103.37 35.19,-161.22 -9.65,-7.91 -10.33,-7.71 -32.23,-19.6zm943.68 -1300.59c65.46,42.51 56.81,176.83 65.02,268.25 18.41,204.82 40.81,423.56 47.76,626.63 75.15,15.28 115.21,39.02 146.33,88.99 -0.35,90.93 -33.95,84.39 -91.2,125.97l30.63 51.5c15.79,33.77 12.36,22.68 18.65,61.76 -41.48,46.15 -34.7,22.2 -59.32,64.93 32.15,69.67 49.76,174.1 32.53,247.11 -73.18,15.78 -200.45,12.44 -274.09,-25.58 -18.28,-90.45 11.54,-178.44 34.43,-265.15 -47.7,-11.52 -79.31,-32.7 -83.91,-87.52 -3.32,-39.53 6.13,-45.6 7.68,-69.25 6.09,-93.55 8.76,-11.47 -10.02,-60.93 -65.18,-171.62 51.1,-107.7 39.9,-243.48 -15.15,-183.69 -143.88,-938.76 95.61,-783.23zm296.69 -1347.62c72.99,-26.58 61.46,-50.44 137.78,-61.1 59.69,2.47 25.38,30.32 66.79,-30.74 -44.99,39.04 -73.23,88.47 -123.33,136.57l-361.87 447c-76.08,103.77 -145.74,206.13 -217.92,316.51 -28.54,43.64 -175.46,306.58 -218.53,326.88 -3.61,4.01 -15.96,13.17 -17.35,13.79 -0.38,0.17 -3.94,-0.2 -4.22,-1.63 -0.33,-1.69 -2.45,-2.6 -3.74,-3.83l-136.56 -104.26c-63.73,-51.35 -56.93,-96.28 -131.25,-107.06 -128.76,-23.05 -318.77,-470.69 -316.97,-723.81 56.31,-53.14 71.6,5.93 83.1,-87.2l-565.33 -25.61c-3.54,58.99 -16.14,39.21 -44.91,101.17 -13.43,28.93 -26.66,78.31 -32.08,111.37 -16.37,99.86 4.04,145.41 22.65,235.06 -13.65,-16.72 -20.06,-21.9 -39.32,-47.3 -18.89,-24.91 -3.93,-14.69 -35.42,-44.05 -56.13,-29.78 -35.79,-40.94 -74.21,-90.12 -75.96,130.9 -27.19,303.21 45.18,406.6 313.45,447.75 674.48,385.27 980.97,508.02 -71.11,29.23 -444.84,-66.5 -543.52,-102.69 -289.63,-106.24 -272.78,-161.94 -410.71,-254.58 -105.59,292.42 -125.18,722.59 -61.04,1039.46 11.56,57.11 18.1,55.86 8.39,105.72l-10.53 24.66 40.67 133.56c-18.47,-39.52 -43.83,-81.26 -64.6,-129.26 -11.57,136.68 -35.63,249.3 -32.31,396.7 1.45,64.77 43.15,323.39 27.71,339.87l71.99 178.97c-67.14,-64.36 -66.33,-131.87 -130.18,-179.61 -26.59,72.46 -46.94,166.81 -75.04,243.24 -71.53,194.61 -176.01,444.43 -57.52,643.11 48.23,80.88 27.12,82.18 27.05,80.49 -0.09,-2.26 -1.28,7.74 -3.98,10.19l-15.73 7.69c-16.06,48.8 -28.77,96.49 -26.8,164.54 0.86,29.58 5.18,66.57 5,94.5 -0.32,51.61 11.15,12.53 -10.42,50.85 136.01,107.93 492.75,138.42 689.75,121.43 -0.81,-135.76 37.32,-126.3 -31.29,-228 -138.21,-204.83 -183.75,-348.59 -26.58,-557.08 148.76,-197.32 55.28,-178.21 60.35,-437.03 4.5,-229.78 -140.27,-179.98 -21.67,-419.9 -59.13,-83.49 -116.35,-145.44 -162.51,-263.06 -89.79,-228.81 -124.47,-483.73 -54.26,-726.19 47.32,-163.41 -36.99,-178.73 -33.14,-353.76 2.66,2.47 22.1,12.19 29.26,27.83l19.41 18.9c54.86,54.87 45.88,56.09 121.41,67.39 30.45,-30.22 20.48,-35.05 70.92,-71.42 -17.82,264.07 -124.7,411.8 -59.45,844.37 34.25,227.14 142.16,382.81 262.14,545.97l50.93 81.93c-63.8,-24.36 -55.6,-38.5 -111.32,-17.72 -2.8,84.41 54.57,215.91 94.39,266.46 -21.53,10.15 3,-1.4 -30.66,6.86l-34.2 9.32c2.55,106.48 38.83,207.51 36.59,307.81 -2.47,111.05 -45.58,176.89 -76.6,259.11 -26.56,-44.84 -14.06,-67.69 -31.78,-107.42 -110.33,129.99 -46.13,288.21 42.92,355.15 58.52,44 81.87,55.32 63.46,164.32l-38.11 201.91 145.8 61.43c2.99,-167.26 -66.77,-433.59 -59.18,-581.5 3.07,-59.84 77.66,-142.88 113.77,-198.16 41.84,-64.05 80.82,-129.66 125.44,-199 77.1,-10.1 232.17,29.79 323.18,36.64 534.05,40.16 643.9,-77.5 938.53,-122.59 57.34,78.75 119.39,121.61 188.16,195.26 104.26,111.65 183.79,100.69 195.59,195.84 -53.54,-2.54 -66,-19.67 -101.06,-48.15 -416.46,-338.29 -183.07,-305.88 -577.52,-211.3 -231.56,55.53 -497.1,61.62 -735.27,33.74 -128.34,-15.03 -178.4,-50.06 -204.91,-3.38 35.61,0.22 445.6,62.62 470.41,76.4 -367.92,100.65 -383.34,-50.43 -485.32,86.8 -166.49,224.04 -122.7,205.29 -53.03,618.43 18.86,111.83 35.75,115.3 -0.28,163.17 244.66,86.99 687.9,78.23 956.94,42.34 169.85,-22.65 769.8,-128.2 877.95,-194.19 -196.04,-396.8 -64.78,-651.01 -68.63,-712.19 -3.44,-54.51 -49.01,-72.42 -82.02,-126.29 -104.98,-171.31 -99.59,-310.94 -44.97,-503.76 114.01,-402.48 62.56,-301.21 4.55,-687.4 -18.79,-125.11 -27.89,-254.49 -30.06,-380.86 -1.18,-68.29 -11.96,-320 34.16,-378.15l-13.34 -60.55c-114.73,108.11 -234.2,259.53 -271.58,487.92 -56.05,342.47 125.8,532.71 71.88,620.29 -77.96,-3.13 -213.61,-177.06 -261.74,-253.54 -67.34,-107.02 -120.3,-222.89 -154.62,-362.55 -105.26,-428.4 -9.67,-597.08 38.3,-921.01 -289.22,95.76 -510.75,383.81 -530.73,396.96 61.38,-109.32 205.09,-270.82 310.42,-346.66 217.14,-156.34 231.13,-71.65 277.07,-209.82 102.42,-307.99 314.23,-696.14 445.41,-1014.71l-423.05 154.81 -2.1 124.88z"/>
   <path class="fil2" d="M8711.82 8280.73c-16.41,-21.7 -16.18,34.03 -16.18,-48.55 14.97,19.79 10.49,-18.19 16.18,48.55zm6148.72 -4485.28l0 279.22c-15.98,226.9 -71.34,444.42 -167.04,624.85 -88.49,166.83 -247.77,296.49 -496.38,296.49 0,287.99 66.82,857.72 80.88,1148.87 15.01,310.69 48.57,584.36 48.57,889.92 0,496.74 0.58,947.39 -194.41,1391.32 -65.6,149.34 -123.73,252.39 -219.1,379.58 -49.14,65.55 -92.65,102.02 -148.7,158.74 -40.89,41.37 -108.76,110.06 -165.93,125.32 213.29,318.52 59.47,457.93 105.25,637.69 51.98,204.13 42.59,270.63 68.57,451.08 15.92,110.63 6.67,146.35 -47.71,202.37 -95.26,98.13 -179.61,164.88 -303.82,230.14 -129.85,68.23 -255.99,103.63 -380.06,112.99l-137.55 0c-184.98,-13.63 -366.65,-80.66 -550.6,-177.99l0 -194.17c-86.41,7.19 -205.96,48.24 -303.41,68.75 -591.07,124.4 -1162.6,242.82 -1769.58,13.99 -121.96,-45.98 -76.72,-36.2 -210.77,-20.5 -462.33,54.14 -703.17,-140.06 -855.32,-175.5 0,-97.05 0.01,-173.94 11.09,-247.8 46.18,-307.58 52.23,-156.18 -54.58,-355.95 -151.02,-282.46 30.35,-184.46 -208.8,-276.63 -61.82,-23.82 -103.98,-52 -157.58,-85.12 -90.83,-56.12 -188.44,-149.82 -257.47,-227.96 -142.18,-160.92 -270.84,-393.52 -361.52,-609.33 -101.9,-242.5 -155.24,-470.53 -210.26,-760.59 -118.36,-623.99 -148.18,-1134.06 -214.77,-1743.11 -10.63,-97.17 -4.8,-393.94 -31.11,-454.32 -21.75,-49.88 -72.28,-82.74 -107.75,-134.97 -157.28,-231.59 -261.53,-572.6 -284.23,-914.39l0 -274.58c12.82,-183.42 52.45,-358.27 123.71,-506.59 57.93,-120.57 184.39,-322 329.35,-334.06 0,-100.54 35.61,-233.78 55.26,-333.09 91.71,-463.56 259.37,-990.39 571.64,-1337.71 195.17,-217.08 8.27,-139.95 437.4,-517.26 36.3,-31.91 68.89,-53.27 109.95,-84.22 76.51,-57.66 139.46,-98.28 224.13,-148.02 498.12,-292.62 1112.96,-524.62 1756.89,-524.62 584.93,0 810.99,15.67 1369.29,200.25 300.06,99.2 600.22,262.08 824.48,437.63 183.22,143.41 198.43,178.79 326.3,304.75 351.78,346.5 446.15,858.53 554.29,1322.69 142.46,-11.86 252.54,-16.26 392.41,109.19 269.48,241.67 420.79,644.25 448.99,1052.65zm-6181.08 4404.37c0,-41.39 25.62,-2.6 9.62,0 -0.19,0.03 -9.62,45.17 -9.62,0zm4437.32 -2200.52c-0.16,110.29 27.12,418.29 -25.93,493.03 15.99,133.12 -65.01,514.18 -123.47,624.66 -31.24,-22.27 2.23,31.71 -32.92,-36.49l-53.05 -300.34c-17.75,-72.01 -64.48,-240.69 -108.49,-281.56 -0.66,-97.8 120.49,-283.81 157.09,-402.21l132.51 -339.8 78.88 -242.71 66.39 -242.71 98.13 -504.5 74.11 75.43c248.89,258.14 346.64,211.99 712.91,163.94l28.35 5.89 30.99 421.05 27.11 346.92 4.81 89.96 13.82 204.9 28.29 409.81c51.77,475 61.02,1077.44 -43.71,1537.54 -49.95,219.46 -124.72,428.18 -228.8,597.05 -93.09,151.02 -255.26,351.98 -403.91,423.55 -293.98,-202.14 -115.89,-165.32 -239.27,-454.55 26.95,-52.39 89.34,-68.15 155.37,-197.26 255.04,-498.66 307.31,-1653.74 295.15,-2181.41 -0.27,-19.03 0.78,-43.72 -2.65,-62.94 -7.33,-40.95 5.68,-17.86 -19.44,-39.6 45.79,211.28 -46.97,2198.87 -450,2411.88 -89.76,-162.88 -66.96,-345.32 -85.17,-544.17 -9.67,-105.5 40.22,-101.12 91.38,-190.5 260.37,-454.88 136.29,-1161.62 193.46,-1364.14l-23.81 -242.73 -25.09 -204.52 14.72 301.82c3.72,345.5 30.2,1354.06 -260.63,1576.31 -28.76,-54.85 -112.07,-471.41 -161.49,-606.98 -24.9,-68.31 3.47,-123.33 22.91,-201.27 109.53,-439.36 62.1,-810.02 93.69,-929.3 -12.7,-19.39 -1.88,11.97 -15.28,-36.27 -1.93,-6.95 -7.5,-37.98 -8.06,-44.48 -4.56,-52.73 -4.02,-51.37 7.11,-96.31 -18.93,29.87 -14.65,0.34 -16.01,63.01zm-993.89 1422.47c27.89,-55.32 21.21,-27.88 58.8,-71.65 25.15,-29.29 28.23,-43.14 55.39,-74.47 61.84,-57.57 207.31,-275.03 259.22,-355.54 36.25,-56.24 200.64,-341.02 228.37,-364.89 63.86,109.59 123.8,374.54 138.42,518.55 25.51,251.19 -7.23,377.53 -25.47,610.25 68.5,-109.21 84.73,-322.11 89.23,-467.66l69.47 130.51c36.83,146.63 20.85,303.29 -11.53,447.8 -26.14,116.64 -107.78,451.3 -85.93,547.5l174.06 -652.81c92.16,288.95 28.19,535.39 132.93,823.09 133.79,367.45 91.59,419.37 28.67,808.67 79.6,-83.59 74.25,-270.31 121.2,-353.11 115.99,66.47 280.84,259.37 287.18,479.04 6.82,236.76 -99.37,416.08 -166.95,597.55 44.23,-35.93 138.22,-206.08 152.79,-264.73l52.68 215.87c9.12,68.01 21.3,177.4 18.91,244.11 -7.7,213.92 -655.68,564.4 -1056.93,359.03l-218.9 -88.56c-19.43,-84.58 16.51,-162.6 -21.63,-241.96 -117.14,-243.79 -157.05,-327.79 -92.69,-656.39 42.46,9.65 33.98,19.02 77.49,42.25 -195.81,-394.6 -322.41,-228.03 -127.6,-917.15 37.15,46.75 193.61,426.72 296.29,493.39 -136.7,-329.16 -173.7,-274.29 -307.21,-765.74 -67.92,-250.04 -145.72,-726.28 -112.92,-982.4 -46.12,58.15 -35.34,309.86 -34.16,378.15 2.17,126.37 11.27,255.75 30.06,380.86 58.01,386.19 109.46,284.92 -4.55,687.4 -54.62,192.82 -60.01,332.45 44.97,503.76 33.01,53.87 78.58,71.78 82.02,126.29 3.85,61.18 -127.41,315.39 68.63,712.19 -108.15,65.99 -708.1,171.54 -877.95,194.19 -269.04,35.89 -712.28,44.65 -956.94,-42.34 -89.03,-20.53 -72.42,-0.8 -86.44,-75.76l-48.66 -444.39c-19.98,-145.89 43.2,-206.5 164.21,-383.04l39.11 -41.61c26.51,-46.68 76.57,-11.65 204.91,3.38 238.17,27.88 503.71,21.79 735.27,-33.74 394.45,-94.58 161.06,-126.99 577.52,211.3 35.06,28.48 47.52,45.61 101.06,48.15 -11.8,-95.15 -91.33,-84.19 -195.59,-195.84 -68.77,-73.65 -130.82,-116.51 -188.16,-195.26 -294.63,45.09 -404.48,162.75 -938.53,122.59 -91.01,-6.85 -246.08,-46.74 -323.18,-36.64 -44.62,69.34 -83.6,134.95 -125.44,199 -36.11,55.28 -110.7,138.32 -113.77,198.16 -7.59,147.91 62.17,414.24 59.18,581.5l-145.8 -61.43 -66.78 -19.46c-20.3,-178.5 41.09,-73.85 -59.48,-230.55 -32.37,-50.44 -79.88,-125.51 -94.46,-196.27 -27.57,-133.78 51.57,-277.99 123.86,-341.31l21.18 -13.87c72.76,-39.79 -38.81,34.3 18.5,-7.26 4.01,-78.69 5.31,-147.67 1.31,-226.58 -4.02,-79.5 -16.33,-112.83 5.65,-168.51l14.53 -24.23c18.38,-29.46 -111.87,-119.93 -85.2,-308.82 37.57,-22.01 43.68,9.72 63.69,0 -254.69,-351.06 -362.76,-733.82 -214.31,-1262.11l-19.62 -1.63c-24.9,-6.37 -30.27,-2.48 -51.17,-30.18 -21.71,-28.77 -30.56,-66.38 -37.75,-102.16 -7.16,-15.64 -26.6,-25.36 -29.26,-27.83 -3.85,175.03 80.46,190.35 33.14,353.76 -70.21,242.46 -35.53,497.38 54.26,726.19 46.16,117.62 103.38,179.57 162.51,263.06 -118.6,239.92 26.17,190.12 21.67,419.9 -5.07,258.82 88.41,239.71 -60.35,437.03 -157.17,208.49 -111.63,352.25 26.58,557.08 68.61,101.7 30.48,92.24 31.29,228 -197,16.99 -553.74,-13.5 -689.75,-121.43l-94.75 -30.9 33.8 -340c49.82,10.82 8.94,-7.68 54.05,23.87 26.64,18.64 22,16.03 39.12,37.14l15.73 -7.69c-73.65,-90.46 -263.41,-386.71 -243.49,-539.59 37.84,-122.58 208.91,-88.39 307.23,-534.42 31.18,32.83 41.16,48.01 45.75,96.98 63.85,47.74 63.04,115.25 130.18,179.61l-71.99 -178.97c-50.44,-57.1 -157.38,-386.63 -176.57,-493.56 -27.9,-155.54 -20.24,-476.93 71.38,-588.13l109.79 345.12c20.77,48 46.13,89.74 64.6,129.26l-40.67 -133.56c-45,-226.49 -90.47,-387.05 -94.05,-633.97 -5.61,-386.68 56.16,-437.71 69.93,-642.8 40.15,31.73 73.63,62.97 87.3,106.93 137.93,92.64 121.08,148.34 410.71,254.58 98.68,36.19 472.41,131.92 543.52,102.69 -306.49,-122.75 -667.52,-60.27 -980.97,-508.02 -72.37,-103.39 -121.14,-275.7 -45.18,-406.6 38.42,49.18 18.08,60.34 74.21,90.12 -33.64,-130.21 -59.85,-240.58 -4.16,-370.81l133.24 14.56 565.33 25.61c-11.5,93.13 -26.79,34.06 -83.1,87.2 -1.8,253.12 188.21,700.76 316.97,723.81 -89.39,-103.02 -317.53,-498.83 -241,-694.18 53.74,-16.39 33.16,-19.34 75.82,14.84l-16.75 -139.32 73.86 -5.1c192.74,-22.93 368.29,-38.27 555.29,-76.22 184.3,-37.39 346.45,-93.32 516.67,-133.28l46.31 101.13 2.1 -124.88 423.05 -154.81c-131.18,318.57 -342.99,706.72 -445.41,1014.71 -45.94,138.17 -59.93,53.48 -277.07,209.82 -105.33,75.84 -249.04,237.34 -310.42,346.66 19.98,-13.15 241.51,-301.2 530.73,-396.96 -47.97,323.93 -143.56,492.61 -38.3,921.01 34.32,139.66 87.28,255.53 154.62,362.55 48.13,76.48 183.78,250.41 261.74,253.54 53.92,-87.58 -127.93,-277.82 -71.88,-620.29 37.38,-228.39 156.85,-379.81 271.58,-487.92zm1083.71 -2425.84l-92.19 372.32 -66.94 258.73c-15.42,24.3 -198.93,508.96 -210.51,550.15 -44.75,38.75 -99.21,241.26 -153.99,285.57 -38.2,115.89 -178.7,325.52 -245.76,429.78 -91.51,142.3 -184.51,260.85 -279.94,384.14 -283.44,366.24 -382.1,330.92 -372.79,913.75 -194.36,-457.07 256.27,-1406.78 448.22,-1708.14l196.82 -378.49c73.97,-128.69 209.89,-396.4 251.55,-544.69l64.69 -175.06 122.53 -404.08c65.62,-156.69 131.18,-616.72 148.57,-822.65 4.47,-52.82 1.69,-62.79 26.71,-102.78 20.47,173.62 73.97,329.21 134.3,472.57 118.16,280.78 71.87,67.49 28.73,468.88zm-4479.31 855.38c89.21,130.53 642.31,286.47 873.88,316.09l-3.18 58.28c-25.64,56.99 7.11,87.39 -25.94,163.19 -17.5,40.1 -46.58,101.26 -68.32,134.88l17.29 188.65c28.7,94.58 52.16,171.7 -22.1,253.49 4.48,65.65 -15.89,183.67 -46.58,231.58 19.88,108.15 -9.27,293.11 2,424.11 17.1,198.72 -65.41,170.83 -87.49,345.01 -93.88,-77.71 -295,-659.44 -280.14,-763.71l-29.4 -77.77c-13.88,-62.71 -29.28,-161.83 -18.41,-218.1 -48.98,-86.23 -23.34,-277.3 -20.71,-389.92l12.36 -161.8 13.13 -97.09 20.6 -88.08 -32.21 118.75 -48.07 281.57c43.24,143.46 -28.85,449.9 128.7,921.78 46.3,138.66 90.83,242.53 156.97,360.3 127.89,227.68 65.46,103.83 58.34,427.23 -88.05,-80.02 -254.01,-462.81 -309.34,-613.97 -61.67,-168.47 -184.16,-561.68 -155.86,-750.13 -64.54,-89.28 13.4,-305.29 -41.2,-396.71 23.62,85.86 3.4,199.59 3.74,293.81 4.63,391.47 110.13,798.44 250.42,1120.64 161.56,371.08 458.68,693.71 299.47,1013.67 -57.59,-9.67 -26.75,-2.65 -42.92,-26.83 -88.41,-9.05 -256.58,-151.7 -299.32,-199.69 -66.36,-74.52 -151.78,-192.13 -205.49,-297.19 -116.46,-227.79 -202.02,-485.14 -239.15,-782.53 -48.49,-276.41 -33.66,-701.73 -22.68,-989.56l8.45 -230 2.5 -25.28 -6.48 72.41c-21.27,59.74 -11.67,131.29 -40.32,178.53 18.78,94.38 -11.38,510.49 -5.73,659.48 7.69,202.39 33.21,411.54 68.59,609.66 45,252.04 196.05,868.58 313.3,1033.22 -4.51,-61.53 -78.2,-248.1 -103.2,-322.64 -25.38,-75.66 -89.24,-268.3 -90.97,-345.91 38.8,44.63 102.3,260.41 247.24,432.35 78.89,93.58 255.99,266 383.81,295.78 -34.59,148.52 -196.76,195.97 -226.53,307.44l-80.9 -82.9c-78.85,-35.86 -241.74,-301.77 -296.36,-398.16 -83.29,-146.98 -158.81,-311.7 -214.47,-481.16 -64.99,-197.85 -271.79,-962.74 -230.51,-1153.72 -22.45,-39.41 -14.69,-25.73 -23.4,-81.83 -3.96,-25.5 -6.27,-58.72 -9.37,-85.5 -7.5,-65.06 -15.65,-126.64 -21.34,-192.32l-57.21 -469.41 -18.48 -177.99c-6.95,-103.04 -42.56,-242.01 -16.23,-334 -74.6,-142.94 -69.93,-1483.7 -37.99,-1725.39l12.44 24.91c1.59,3.83 3.79,8.45 5.4,12.74l23.11 91.35c49.07,195.25 114.44,218.65 66.98,351.47 -60.59,169.57 -67.86,350.34 -28.12,532.5 60.56,277.63 309.79,598.37 537.4,704.42zm5258.86 -3129.08l129.88 -27.27c378.85,27.95 602.37,560.3 659.04,979.86 32.59,241.31 25.62,499.93 -36.05,729.65 -55.6,207.15 -175.01,417.48 -333.76,480.87l-76.22 8.65c-63.96,39.78 -168.3,19.26 -303.32,-81.86 -224.36,-168.02 -361.26,-550.16 -406.59,-841.05 -59.81,-383.8 -6.24,-1114.89 367.02,-1248.85zm-6293.01 2586.09c-16.79,-16.95 -1.54,2.24 -25.57,-27.93 -24.12,-30.29 7.19,11.65 -14.35,-19.58 -296.11,-429.43 -378.08,-1434.55 27.07,-1800.03 43.09,-51.51 31.68,-41.8 104.06,-71.29 -84.9,592.16 -72.85,1373.76 -47.29,1975.29 -40.33,-25.24 -24.12,-1.08 -43.92,-56.46zm5908.05 -383.75c-45.68,-4.94 -12.16,13.24 -67.56,-25.64 -107.72,-75.59 -218.49,-236.4 -275.48,-355.85 -172.44,-361.48 -227.76,-835.48 -133.4,-1234.67 42.68,-180.59 151.39,-418.28 265.57,-468.45 75.71,-89.16 348.97,-107.54 447.12,-109.13 -251.86,242.96 -360.09,739.18 -287.98,1213.96 31.89,210.05 89.66,422.06 175.57,586.25 83.52,159.61 217.61,328.99 361.08,395.77 -33.37,22.33 -79.99,25.64 -123.85,30.7 -115.48,13.33 -287.66,53.64 -361.07,-32.94zm-2711.21 -782.53l67.64 4.1 175.65 -19.69 1030.57 -62.33 170.17 -6.84 -72.18 -53.27c143.08,-18.88 236.43,-102.18 332.52,-141.12 1.01,340.37 -47.05,499.81 -132.5,804.95 -51.82,185.02 -155.42,556.01 -232.74,701.52 -116.42,396.7 -129.27,359.61 -375.86,455.04 -200.04,77.43 -395.12,140.95 -615.7,197.56 -576,143.09 -914.47,123.54 -1507.1,101.08l-23.79 -4.9c-552.72,-113.72 -811.66,-160.1 -1149.63,-481.76 -123.47,-117.52 -258.08,-284.92 -305.42,-519.54 -23.81,-117.99 -26.61,-240.28 -5.26,-358.74 23.27,-129.13 101.07,-201.89 37.52,-311.6l113.18 15.97 282.99 -9.22 -89.61 51.16 38.61 -4.34 99.68 -31.06c229.32,-70.38 647.71,-121.3 913.13,-134.01l80.24 -6.14 -41.99 -59.01 93.68 -40.53 -84.24 -35.19 100.5 -34.74c-387.53,-51.02 -858.14,99.34 -1153.72,140.07l-25.98 4.5c-97.1,44.51 -166.19,1.75 -256.29,-20.14 104.19,80.68 116.88,51.33 237.45,92.49 -82.04,57.17 -199.93,57.21 -316.52,53.94 -169.35,-423.6 -139.37,-658.39 -61.33,-1113.61 912.37,-294.06 1320.96,-506.92 2001.64,-1088.11 94.84,-80.97 76.55,-34.79 92.34,-104 -55.65,56.7 -139.03,122.04 -203.06,171.04 -234.79,179.67 -367.14,292.13 -649.86,449.78 -161.06,89.82 -847.55,440.33 -1037.83,431.77 -38.76,37.05 -121.9,53.83 -186.46,59.32 38.05,-211.22 153.48,-687.06 231.86,-846.21l-70.4 79.23c-85.93,272.93 -164.95,496.47 -228.36,795.73 -61.78,291.54 -100.57,595.4 -124.22,901.51 -50.93,659.45 -2.67,1276.51 42.54,1931.87 92.81,892.37 135.62,1762.5 491.33,2563.84 173.1,389.95 352.06,539.31 393.2,616.11 -133.13,-49.26 -320.81,-200.38 -364.44,-295.14 -142.84,-69.46 -391.5,-657.01 -449.69,-855.16 -101.33,-345.12 -152.99,-719.51 -203.07,-1091.28 -180.28,-1338.5 -377.94,-4012.97 378.15,-5159.8 111.96,-169.83 171.43,-219.3 297.97,-349.68 177.82,-183.23 583.65,-475.27 779.94,-512.98 201.58,-142.59 861.41,-256.83 1166.99,-272.19 355.56,-17.87 971.41,29.23 1253,174.7 305.99,86.2 706.42,359.93 890.34,592.76 227.4,287.87 405.28,571.34 503.39,953.42 128.08,498.79 35.37,309.76 -99.64,644.6l-43.64 80.94c3.58,82.14 -56.51,304.23 -60.81,441.86 -2.82,121.72 10.37,231.47 9.95,346.71 -1.39,382.28 -312.16,1584.61 -491.49,1807.63l-98.76 212.25c-45.18,95.98 -104.75,186.56 -157.47,282.31 -47.8,86.83 -123.02,195.5 -158.56,281.54 -216.05,362.71 -413.36,816.14 -418.64,1266.63 -1.6,136.04 13.66,249.25 51.86,376.42 28.19,93.85 12.64,81.16 -0.07,100.01 -15.3,-39.1 -16.96,-37.33 -39.3,-77.5 -467.2,-881.3 180.8,-1802.98 470.7,-2510.28 306.35,-747.45 603.61,-1757.91 639.86,-2678.68 2.71,-69.15 23.86,-293.13 11,-351.54 -9.39,-42.64 4.56,-8.78 -15.07,-33.66 -40.45,181.17 -55.93,826.92 -131.85,934.68 9.76,71.67 -3.28,103.63 -19.03,174.61 -25.64,-158.66 -32.2,-335.33 -56.61,-496.96 -48.33,-320.08 -114.53,-585.38 -213.36,-886.76 -45.16,-137.7 -108.38,-275.92 -147.7,-409.69 -8.16,-14.11 -3.25,-26.15 -39.69,-46.76l5.86 84.72c42.7,45.16 56.21,148.15 76.15,218.34 19.05,67.05 49.57,149.88 55.73,210.7 -109.14,-22.35 -396.61,-132.88 -468.98,-184.23 -193.89,-69.49 -543.79,-309.08 -668.31,-417.4 16.03,41.82 72.65,82.07 111.92,114.03 43.72,35.59 76.63,59.59 120.16,90.06 243.42,170.37 529.25,337.65 825.44,436.58 91.79,30.66 99.45,14.66 124.96,102.66l111.79 519.06c40.58,224.24 86.5,518.04 84.69,747.27 -215.67,111.17 -236.56,93.13 -376.68,62.57 32.72,-24.15 60.09,-40.73 88.66,-60.11 74.97,-50.83 66.62,-41.18 89.68,-87.15 -109.39,47.27 -161.65,100.08 -303.42,131.98 -105.71,23.79 -281.42,13.52 -398.61,19.77 -250.55,13.33 -504.85,45.2 -749.71,90.33l112.05 27.87 -79.98 33.11 72.26 28.64c-48.09,13.4 -112.98,48.09 -154.31,51.71zm-1336.08 -3271.97c-60.51,40.17 -274.09,114.72 -358.85,159.09 -123.53,64.66 -231.57,148.33 -341.6,203 18.74,-30.44 3.66,-8.17 25.16,-31.9 55.06,-60.77 231.23,-175.42 301.63,-218.13 62.84,-38.12 303.23,-179.43 369.88,-187.72l73.86 -49.19c859.65,-399.61 1938.65,-405.33 2799.59,-60.36 880.96,352.99 1391.93,961.99 1520.56,1965.7 -109.84,6.14 -227,25.11 -337.57,39.58 -164.84,21.55 -156.96,50.21 -266.85,90.67 -31.82,-565.28 -298.53,-948.32 -585.21,-1326.23l-182.46 -188.58c-149.2,-129.79 -275.72,-206.54 -460.71,-300.78 -576.42,-293.64 -1290.51,-350.49 -1945.87,-243.58 -225.6,36.8 -411.41,108.25 -611.56,148.43z"/>
   <path class="fil3" d="M8730.59 1966.18c4.99,-66.03 75.53,-136.97 118.72,-182.2 171.52,-179.63 107.27,-133.31 309.1,-304.99 47.3,-40.22 123.9,-101.6 190.27,-131.78 -2.91,3.84 -7.14,8.3 -9.54,10.86 -2.34,2.5 -6.58,7.53 -9.46,10.5 -2.76,2.84 -6.31,6.79 -9.36,9.8 -2.89,2.85 -6.28,6.12 -9.27,8.91 -69.11,64.36 -162.29,118.1 -225.42,195.98 -45.93,56.67 -76.27,67.92 -125.33,117.35 -32.52,32.77 -66.84,89.83 -103.36,136.07 56.83,-22.12 541.62,-374.42 681.87,-386.04 -3.89,72.95 -22.49,65.07 -74.89,106.92 -99.99,79.85 -180.94,173.73 -260.62,273.58 -74.02,92.75 -240.36,247.8 -308.25,389.27 35.16,-36.73 80.9,-63.39 125.92,-102.56l273.96 -211.12c4.26,-2.91 63.92,-44.07 69.43,-46.93 20.01,-10.39 18,-12.53 42.62,-11.69 111.85,3.84 -24.16,129.25 -24.18,129.28 -49.22,59.13 -254.84,305.14 -271.29,357.63 225.95,-127.98 421.57,-306.7 611.04,-454.6 59.05,-46.1 110.67,-150.12 189.01,-124.96 28,21.38 9.81,62.37 9.79,62.41 -8.36,28.5 -17.17,25.85 -36.12,47.27 -126.01,142.36 -207.79,259.58 -355.1,388.91 -88.39,77.6 -51.37,29.55 -152.56,138.52 159.83,-66.59 277.41,-233.93 362.09,-219.9 21.13,71.78 -64.38,133.62 -146.55,209.34 -37.37,34.44 -58.38,47.8 -98.49,79.73 -33.91,26.98 -64.85,63.57 -88.99,92.36 216.85,-86.9 571.43,-407.8 738.78,-511.4 -53.97,111.73 -558.82,456.34 -639.74,508.98 -114.59,74.55 -228.65,145.28 -354.8,212.29 -94.33,50.1 -285,204.83 -368.77,161.49 20.94,-60.83 170.61,-125.26 270.55,-194.22l249.04 -187.77c-103.34,31.16 -415.62,240.71 -512.61,208.64 -31.36,-71.92 1.48,-68.95 76.53,-110.53 80.83,-44.78 304.1,-179.83 357.95,-258.68 -69.67,30.48 -118.56,68.66 -182.83,108.65 -56.83,35.36 -107.33,93.57 -170.12,65.46 -23.51,-54.96 5.15,-74.86 37.8,-116.53 59.65,-76.11 196.29,-238.17 222.18,-300.29 -98.19,59.3 -175.77,147.76 -250.04,207.69 -132.07,106.57 -176.56,188.94 -255.29,192.97 -9.9,-81.04 84.66,-185.92 128.5,-255.01 146.21,-230.43 277.72,-355.21 433.64,-536.8l94.31 -109.61c-139.66,57.58 -479.59,316.71 -550.12,326.75zm2923.28 -824.08c80.76,-34.73 458.86,241.29 556.52,353.77l85.96 63.32c-47.72,-103.4 -103.21,-157.62 -169.37,-236.46l-181.01 -199.71c143.94,110.89 233.78,195.64 342.59,344.55 67.1,91.83 231.97,311.17 243.39,439.35 -62.46,-7.86 -58.25,-23.08 -93.64,-70.76 -134.84,-181.69 -353.04,-386.46 -554.76,-499.6 7.3,23.46 322.87,509.39 274.22,679.56 -101.9,12.81 -70.18,-66.42 -300.36,-311.02 -92.04,-97.81 -30.01,-72.94 -115.87,-100.62 46.22,89.61 251.14,316.58 113.1,311.67l-240.25 -127.09c144.34,192.37 226.29,175.89 253.55,266.04 -110.95,-4.1 -464.57,-187.59 -526.11,-285.41 77.66,35.81 258.35,167.64 338.07,176.57 -57.04,-33.73 -174.15,-196.1 -216.73,-267.7 -22.86,-38.44 -42.17,-79.88 -15.12,-117.52 13.37,0.95 216.15,176.47 300,210.95 -32.58,-66.93 -120.36,-162.34 -171.71,-222.17 -85.26,-99.33 -162.92,-162.83 -158.29,-224.31 87.66,-31.61 352.92,163.59 417.04,224.36l81.07 82.62c28.74,21.53 -4.9,2.18 37.24,23.22 -32.77,-96.36 -103.94,-206.41 -153.79,-281.14 -121.1,-181.56 -159.64,-124.67 -145.74,-232.47zm-2248.64 -127.62c41.44,21.39 30.25,1.79 -24.33,34.28 -163.68,97.42 -202.16,82.06 -435.55,264.53 -511.03,399.51 -734.78,758.74 -904.52,1490.82 -104.1,448.99 -157.19,961 -161.35,1423.37 -2.41,267 -24.26,1371.99 38.1,1550.52 24.61,-45.53 17.67,-13.96 21.64,-80.35 -20.45,-938.6 -96.82,-1606.49 182.54,-2569.9 46.46,-160.26 138.89,-439.97 215.53,-595.76 28.85,-58.65 11.14,-44.2 54.59,-62.53l70.4 -79.23c32.04,59.21 -12.58,271.4 -19.62,356.34 -12.38,149.1 -10.32,274.31 -11.33,424.49l-14.45 6.06c190.28,8.56 876.77,-341.95 1037.83,-431.77 282.72,-157.65 415.07,-270.11 649.86,-449.78 64.03,-49 147.41,-114.34 203.06,-171.04 7.9,-39.55 -19.61,-13.75 32.23,-63.54 60.57,-58.17 13.12,-24.4 66.98,-27.79l66.56 -66.01c3.89,-53.79 -7.15,-9.66 15.14,-48.76l169.29 -186.73c45.5,-44.84 53.18,-67.61 97.14,-112.47 80.44,-82.08 67.66,-124.05 127.88,-88.11 22.19,13.24 -1.36,0.26 26.13,21.64 71.33,55.48 282.14,196.39 302.1,280.9 124.52,108.32 474.42,347.91 668.31,417.4 57.45,-40.36 132.61,5.84 262.77,-1.89 73.9,-85.76 45.54,-143.12 74.33,-242.92l-5.86 -84.72c36.44,20.61 31.53,32.65 39.69,46.76l16.64 19.75c131.98,167.94 259.73,490.05 318.72,686.57 153.37,510.97 66.93,576.07 101.34,912.48 75.92,-107.76 91.4,-753.51 131.85,-934.68 19.63,24.88 5.68,-8.98 15.07,33.66 12.86,58.41 -8.29,282.39 -11,351.54 92.7,163.9 -111.72,1291.41 -171.21,1530.47 -100.28,403.02 -275.08,958.5 -444.25,1298.75l19.17 14.24c146.63,-275.9 269.29,-674.6 383.27,-886.23 -51.48,243.29 -264.11,674.57 -344.03,928.55 61.09,-65.17 182.81,-299.81 215.19,-377.99 34.83,-84.09 15.02,-99.36 96.5,-92.74 201.41,-302.32 419.39,-1783.55 437.28,-1822.09 4.3,-137.63 64.39,-359.72 60.81,-441.86 -38.39,-51.88 -13.91,-272.66 -30.01,-425.16 -46.74,-442.89 -225.83,-922.64 -513.96,-1231.77 -25.9,-27.79 -30.29,-23.98 -57.47,-55.08 -65.18,-74.55 -65.92,-88.99 -159.34,-164.79 -105.05,-85.23 -86.21,-87.89 -237.9,-198.99 -72.95,-53.43 -203.56,-140.82 -251.77,-195.93 -281.59,-145.47 -897.44,-192.57 -1253,-174.7 -305.58,15.36 -965.41,129.6 -1166.99,272.19z"/>
   <path class="fil1" d="M12237.08 7275.65c30.7,39.27 15.47,54.45 9.67,147.22 -10.02,160.22 3.9,319.79 16.57,478.91 33.56,421.71 175.97,898.27 359.46,1273.9 36.9,75.53 99.17,153.09 122.14,229.31l-380.28 -252.61c3.57,145.29 25.97,265.96 77.66,397.73 31.78,80.99 142.56,258.9 174.61,276.01 -24.32,-11.87 -45.53,-24.48 -60.42,-32.97 -55.81,-31.83 -13.43,-30.9 -91.91,-25.57 -31.13,163.91 -13.17,460.06 188.08,511.31 73.25,18.66 158.89,19.29 236.11,23.95 -94.37,71.16 -210.78,-2.53 -217.36,166.03 -0.47,11.87 0.82,55.26 0.07,60.74 -8.45,61.44 9.48,36.39 -28.08,69.27 401.25,205.37 1049.23,-145.11 1056.93,-359.03 2.39,-66.71 -9.79,-176.1 -18.91,-244.11l-52.68 -215.87c-14.57,58.65 -108.56,228.8 -152.79,264.73 67.58,-181.47 173.77,-360.79 166.95,-597.55 -6.34,-219.67 -171.19,-412.57 -287.18,-479.04 -46.95,82.8 -41.6,269.52 -121.2,353.11 62.92,-389.3 105.12,-441.22 -28.67,-808.67 -104.74,-287.7 -40.77,-534.14 -132.93,-823.09l-174.06 652.81c-21.85,-96.2 59.79,-430.86 85.93,-547.5 32.38,-144.51 48.36,-301.17 11.53,-447.8l-69.47 -130.51c-4.5,145.55 -20.73,358.45 -89.23,467.66 18.24,-232.72 50.98,-359.06 25.47,-610.25 -14.62,-144.01 -74.56,-408.96 -138.42,-518.55 -27.73,23.87 -192.12,308.65 -228.37,364.89 -51.91,80.51 -197.38,297.97 -259.22,355.54z"/>
   <path class="fil4" d="M14405.26 4885.34c158.75,-63.39 278.16,-273.72 333.76,-480.87 61.67,-229.72 68.64,-488.34 36.05,-729.65 -56.67,-419.56 -280.19,-951.91 -659.04,-979.86 -114.99,102.3 -249.87,104.93 -348.67,462.91 -114.6,415.19 -32.12,991.68 172.84,1366.79 72.06,131.88 71.41,129.22 175.23,229.73 104.74,101.4 183.76,77.29 289.83,130.95z"/>
   <path class="fil5" d="M11133.27 4126.45c156.23,270.09 -194.39,635.37 19.53,984.51 59.04,96.37 194.25,261.39 203.39,402.37 7.83,120.66 -95.36,345.97 -118.64,508.63 220.58,-56.61 415.66,-120.13 615.7,-197.56 246.59,-95.43 259.44,-58.34 375.86,-455.04 -16.9,-112.93 -26.56,-181.31 -69.86,-276.16 -37.7,-82.54 -86.9,-134.98 -92.52,-244.68 -8.51,-166.33 107.67,-354.7 128.1,-548.47l-54.77 21.65c2.97,-3.2 7.12,-13.62 8.61,-10.66 1.45,2.88 6.49,-8.47 8.47,-10.69 1.87,-2.1 6.33,-7.13 8.56,-9.6l33.44 -38.47 -35.3 -188.16 -1030.57 62.33z"/>
   <path class="fil4" d="M9550.12 794.41c521.16,-155.15 676.02,-243.85 1297.52,-240.7 463.4,2.35 868.79,62.51 1268.66,261.11 133.51,66.31 348.02,199.85 461.11,299.62l381.73 394.51c191.75,248.2 417.92,722.77 412.87,1130.82 -35.55,-85.57 -39.23,-213.83 -69.65,-309.32 -121.3,-380.73 -288.98,-674.71 -549.89,-954.47 -144.47,-154.91 -471.71,-377.16 -663.79,-469.24 -580.48,-278.27 -1292.36,-332.94 -1939.72,-216.45 -129.96,23.39 -510.25,112.1 -595.06,179.78 200.15,-40.18 385.96,-111.63 611.56,-148.43 655.36,-106.91 1369.45,-50.06 1945.87,243.58 184.99,94.24 311.51,170.99 460.71,300.78l182.46 188.58c286.68,377.91 553.39,760.95 585.21,1326.23 109.89,-40.46 102.01,-69.12 266.85,-90.67 110.57,-14.47 227.73,-33.44 337.57,-39.58 -128.63,-1003.71 -639.6,-1612.71 -1520.56,-1965.7 -860.94,-344.97 -1939.94,-339.25 -2799.59,60.36l-73.86 49.19z"/>
   <path class="fil5" d="M8728.72 4469.01c7.12,123.36 -63.79,212.88 -101.5,329.93 64.16,-46.86 99.32,-105.38 210.08,-132.92 -44.77,80.16 -175.46,122.39 -228.47,201.86 -34.92,202.91 73.57,328.56 158.74,411.97 159.29,156 64.28,271.84 64.71,474.2 145.04,89.24 231.69,146.49 410.84,217.02 82.92,32.65 427.27,122.01 463.54,147.07l23.79 4.9c101.93,-334.3 100.28,-658.62 -81.97,-930.14 -71.86,-107.06 -163.81,-218.39 -122.41,-402.64 36.53,-162.57 115.35,-267.06 115.78,-455.26 -265.42,12.71 -683.81,63.63 -913.13,134.01z"/>
   <path class="fil6" d="M13761.14 6209.49c12.16,527.67 -40.11,1682.75 -295.15,2181.41 -66.03,129.11 -128.42,144.87 -155.37,197.26 123.38,289.23 -54.71,252.41 239.27,454.55 148.65,-71.57 310.82,-272.53 403.91,-423.55 104.08,-168.87 178.85,-377.59 228.8,-597.05 104.73,-460.1 95.48,-1062.54 43.71,-1537.54 -18.31,-22.94 -26.87,6.03 -35.55,-48.38 -2.64,67.93 -9.14,50.45 -11.86,53.16 -2.3,2.28 -29.72,-3.13 -34.57,-3.97l-366.99 -3.62 7.01 -182.25 5.99 -199.54 -7.34 -303.14 3.89 -25.74c9.71,74.58 5.21,152.14 5.7,228.11 0.18,28.94 4.06,89.34 2.05,113.84 -4.93,59.87 -8.74,74.19 -33.5,96.45z"/>
   <path class="fil0" d="M10503.88 6206.71c19.98,89.36 21.02,104.13 -28.2,170.47l-28.91 -26.05c-42.66,-34.18 -22.08,-31.23 -75.82,-14.84 -76.53,195.35 151.61,591.16 241,694.18 74.32,10.78 67.52,55.71 131.25,107.06l136.56 104.26c49.32,-247.92 166.96,-487.62 288.64,-663.33 209.08,-301.93 359.72,-369.16 453.75,-480.12l-46.31 -101.13c-170.22,39.96 -332.37,95.89 -516.67,133.28 -187,37.95 -362.55,53.29 -555.29,76.22z"/>
   <path class="fil6" d="M8588.36 7640.82l73.7 187.4c134.39,350.69 334.46,803.87 623.96,1045.56 70.14,58.56 48.83,29.04 46.3,46.45 16.17,24.18 -14.67,17.16 42.92,26.83 159.21,-319.96 -137.91,-642.59 -299.47,-1013.67 -140.29,-322.2 -245.79,-729.17 -250.42,-1120.64 -38.99,63.57 -29.08,148.74 -20.71,227.97l-28.1 -79.2 -167.69 -0.02 -43.17 -310.24c-10.98,287.83 -25.81,713.15 22.68,989.56z"/>
   <path class="fil7" d="M8730.59 1966.18c70.53,-10.04 410.46,-269.17 550.12,-326.75l-94.31 109.61c-155.92,181.59 -287.43,306.37 -433.64,536.8 -43.84,69.09 -138.4,173.97 -128.5,255.01 78.73,-4.03 123.22,-86.4 255.29,-192.97 74.27,-59.93 151.85,-148.39 250.04,-207.69 -25.89,62.12 -162.53,224.18 -222.18,300.29 -32.65,41.67 -61.31,61.57 -37.8,116.53 62.79,28.11 113.29,-30.1 170.12,-65.46 64.27,-39.99 113.16,-78.17 182.83,-108.65 -53.85,78.85 -277.12,213.9 -357.95,258.68 -75.05,41.58 -107.89,38.61 -76.53,110.53 96.99,32.07 409.27,-177.48 512.61,-208.64l-249.04 187.77c-99.94,68.96 -249.61,133.39 -270.55,194.22 83.77,43.34 274.44,-111.39 368.77,-161.49 126.15,-67.01 240.21,-137.74 354.8,-212.29 80.92,-52.64 585.77,-397.25 639.74,-508.98 -167.35,103.6 -521.93,424.5 -738.78,511.4 24.14,-28.79 55.08,-65.38 88.99,-92.36 40.11,-31.93 61.12,-45.29 98.49,-79.73 82.17,-75.72 167.68,-137.56 146.55,-209.34 -84.68,-14.03 -202.26,153.31 -362.09,219.9 101.19,-108.97 64.17,-60.92 152.56,-138.52 147.31,-129.33 229.09,-246.55 355.1,-388.91 18.95,-21.42 27.76,-18.77 36.12,-47.27 0.02,-0.04 18.21,-41.03 -9.79,-62.41 -78.34,-25.16 -129.96,78.86 -189.01,124.96 -189.47,147.9 -385.09,326.62 -611.04,454.6 16.45,-52.49 222.07,-298.5 271.29,-357.63 0.02,-0.03 136.03,-125.44 24.18,-129.28 -24.62,-0.84 -22.61,1.3 -42.62,11.69 -5.51,2.86 -65.17,44.02 -69.43,46.93l-273.96 211.12c-45.02,39.17 -90.76,65.83 -125.92,102.56 67.89,-141.47 234.23,-296.52 308.25,-389.27 79.68,-99.85 160.63,-193.73 260.62,-273.58 52.4,-41.85 71,-33.97 74.89,-106.92 -140.25,11.62 -625.04,363.92 -681.87,386.04 36.52,-46.24 70.84,-103.3 103.36,-136.07 49.06,-49.43 79.4,-60.68 125.33,-117.35 63.13,-77.88 156.31,-131.62 225.42,-195.98 2.99,-2.79 6.38,-6.06 9.27,-8.91 3.05,-3.01 6.6,-6.96 9.36,-9.8 2.88,-2.97 7.12,-8 9.46,-10.5 2.4,-2.56 6.63,-7.02 9.54,-10.86 -66.37,30.18 -142.97,91.56 -190.27,131.78 -201.83,171.68 -137.58,125.36 -309.1,304.99 -43.19,45.23 -113.73,116.17 -118.72,182.2z"/>
   <path class="fil7" d="M8601.93 8983.38c15.85,-24.95 13.71,12.64 -3.46,-25.07l-76.26 -116.38c-242.93,-386.64 -360.91,-820.43 -434.73,-1279.91 -49.85,-310.22 -191.14,-1522.2 -169.9,-1784.02 -62.36,-178.53 -40.51,-1283.52 -38.1,-1550.52 4.16,-462.37 57.25,-974.38 161.35,-1423.37 169.74,-732.08 393.49,-1091.31 904.52,-1490.82 233.39,-182.47 271.87,-167.11 435.55,-264.53 54.58,-32.49 65.77,-12.89 24.33,-34.28 -196.29,37.71 -602.12,329.75 -779.94,512.98 -126.54,130.38 -186.01,179.85 -297.97,349.68 -756.09,1146.83 -558.43,3821.3 -378.15,5159.8 50.08,371.77 101.74,746.16 203.07,1091.28 58.19,198.15 306.85,785.7 449.69,855.16z"/>
   <path class="fil8" d="M12122.89 7421.77l13.34 60.55c-32.8,256.12 45,732.36 112.92,982.4 133.51,491.45 170.51,436.58 307.21,765.74 -102.68,-66.67 -259.14,-446.64 -296.29,-493.39 -194.81,689.12 -68.21,522.55 127.6,917.15 -43.51,-23.23 -35.03,-32.6 -77.49,-42.25 -64.36,328.6 -24.45,412.6 92.69,656.39 38.14,79.36 2.2,157.38 21.63,241.96l218.9 88.56c37.56,-32.88 19.63,-7.83 28.08,-69.27 0.75,-5.48 -0.54,-48.87 -0.07,-60.74 6.58,-168.56 122.99,-94.87 217.36,-166.03 -77.22,-4.66 -162.86,-5.29 -236.11,-23.95 -201.25,-51.25 -219.21,-347.4 -188.08,-511.31 78.48,-5.33 36.1,-6.26 91.91,25.57 14.89,8.49 36.1,21.1 60.42,32.97 -32.05,-17.11 -142.83,-195.02 -174.61,-276.01 -51.69,-131.77 -74.09,-252.44 -77.66,-397.73l380.28 252.61c-22.97,-76.22 -85.24,-153.78 -122.14,-229.31 -183.49,-375.63 -325.9,-852.19 -359.46,-1273.9 -12.67,-159.12 -26.59,-318.69 -16.57,-478.91 5.8,-92.77 21.03,-107.95 -9.67,-147.22 -27.16,31.33 -30.24,45.18 -55.39,74.47 -37.59,43.77 -30.91,16.33 -58.8,71.65z"/>
   <path class="fil6" d="M13720.77 6219.07c14.6,106.15 -4.41,123.36 -14.26,228.68 -2.67,-3.21 -6.04,-7.86 -8.05,-9.6l-67.25 -28.66c-23,-1.74 -71.11,1.71 -100.19,1.36l-9.79 69.6 -32.51 -60.43c-57.17,202.52 66.91,909.26 -193.46,1364.14 -51.16,89.38 -101.05,85 -91.38,190.5 18.21,198.85 -4.59,381.29 85.17,544.17 403.03,-213.01 495.79,-2200.6 450,-2411.88 -21.62,-70.47 -17.38,-188.02 -6.16,-258.84l-12.12 370.96z"/>
   <path class="fil9" d="M7917.58 5778c-21.24,261.82 120.05,1473.8 169.9,1784.02 73.82,459.48 191.8,893.27 434.73,1279.91l76.26 116.38c17.17,37.71 19.31,0.12 3.46,25.07 43.63,94.76 231.31,245.88 364.44,295.14 -41.14,-76.8 -220.1,-226.16 -393.2,-616.11 -355.71,-801.34 -398.52,-1671.47 -491.33,-2563.84 -24.35,39.72 -23.88,117.02 -0.35,156.35 -22.9,65.88 -44.41,-7.5 -46.36,152.31 -2.26,-3.61 -4.77,-8.69 -5.93,-11.32l-89.98 -698.26c-3.97,66.39 2.97,34.82 -21.64,80.35z"/>
   <path class="fil6" d="M13149.02 6113.35c-31.59,119.28 15.84,489.94 -93.69,929.3 -19.44,77.94 -47.81,132.96 -22.91,201.27 49.42,135.57 132.73,552.13 161.49,606.98 290.83,-222.25 264.35,-1230.81 260.63,-1576.31 -59.77,81.06 -36.05,341.41 -27.53,430.66l-6.99 -176.17c-48.67,0 -98.98,-1.87 -147.08,-1.54 -79.94,0.53 -85.4,-17.71 -96.49,38.37 4.78,-181.67 1.08,-330.81 -18.03,-510.14l-9.4 57.58z"/>
   <path class="fil10" d="M13075.67 3188.71l43.64 -80.94c135.01,-334.84 227.72,-145.81 99.64,-644.6 -98.11,-382.08 -275.99,-665.55 -503.39,-953.42 -183.92,-232.83 -584.35,-506.56 -890.34,-592.76 48.21,55.11 178.82,142.5 251.77,195.93 151.69,111.1 132.85,113.76 237.9,198.99 93.42,75.8 94.16,90.24 159.34,164.79 27.18,31.1 31.57,27.29 57.47,55.08 288.13,309.13 467.22,788.88 513.96,1231.77 16.1,152.5 -8.38,373.28 30.01,425.16z"/>
   <path class="fil6" d="M12232.7 6482.23c-191.95,301.36 -642.58,1251.07 -448.22,1708.14 -9.31,-582.83 89.35,-547.51 372.79,-913.75 95.43,-123.29 188.43,-241.84 279.94,-384.14 67.06,-104.26 207.56,-313.89 245.76,-429.78 -5.34,0.69 -21.79,3.3 -26.28,3.83 -3.54,0.42 -8.75,1.16 -12.67,1.57 -3.78,0.39 -8.31,0.97 -12.27,1.3l-178.65 5.73c-90.78,58.64 -66.28,140.58 -170.92,153.42l133.78 -319.89c-126.05,85.12 -75.01,162.6 -183.26,173.57z"/>
   <path class="fil11" d="M8164.3 6193.31c16.52,-18.96 48.79,31.09 17.57,-38.27l28.81 126.05 821.39 7.78 32.21 -118.75 -20.6 88.08c94.28,38.4 154.8,25.32 266.83,25.21 43.52,-0.04 86.77,-0.68 130.2,-1.02 131.13,-1.06 103.18,0.05 124.3,26.31 -20.52,-24.01 -11.7,-38.67 -11.7,-82.94 38.62,-26.99 -16.68,-21.65 44.68,-0.08l3.18 -58.28c-231.57,-29.62 -784.67,-185.56 -873.88,-316.09 -10.36,55.65 -20.37,18.78 4.44,57.93l-458.7 -3.92c-78.5,0.11 -76.01,-16.34 -95.26,33.12 -5.69,-66.26 11.17,-164.58 -29.7,-79.13 -26.33,91.99 9.28,230.96 16.23,334z"/>
   <path class="fil0" d="M12241.8 4421.67c52.68,-76.4 107.39,-128.51 211.06,-147.39 -60.03,83.03 -90.06,63.17 -211.06,147.39zm-77.96 -357.55l35.3 188.16c74.21,-39.39 102.17,-86.95 212.88,-96.52 -59.19,79.24 -147.8,70.27 -217.19,144.29 -20.43,193.77 -136.61,382.14 -128.1,548.47 5.62,109.7 54.82,162.14 92.52,244.68 43.3,94.85 52.96,163.23 69.86,276.16 77.32,-145.51 180.92,-516.5 232.74,-701.52 85.45,-305.14 133.51,-464.58 132.5,-804.95 -96.09,38.94 -189.44,122.24 -332.52,141.12l72.18 53.27 -170.17 6.84z"/>
   <path class="fil12" d="M13546.15 4863.42c49.54,-56.23 91.29,-19.91 196.67,-61.58 -1.54,-3.6 -4.69,-12.79 -5.58,-10.36 -0.89,2.42 -4.45,-8.18 -5.71,-10.23 -175.67,-285.38 -253.45,-466.19 -304.23,-843.6 -51.7,-384.29 -9.12,-676.04 126.31,-1020.84 -59.29,-2.6 -172.13,11.12 -194.7,5.39 -65.42,65.2 -128.94,355.32 -144.04,458.37 -53.86,367.54 76.19,1105.82 269.9,1373.79l53.99 96.91c1.69,3.01 4.55,8.36 7.39,12.15z"/>
   <path class="fil13" d="M9550.12 794.41c-66.65,8.29 -307.04,149.6 -369.88,187.72 -70.4,42.71 -246.57,157.36 -301.63,218.13 -21.5,23.73 -6.42,1.46 -25.16,31.9 110.03,-54.67 218.07,-138.34 341.6,-203 84.76,-44.37 298.34,-118.92 358.85,-159.09 84.81,-67.68 465.1,-156.39 595.06,-179.78 647.36,-116.49 1359.24,-61.82 1939.72,216.45 192.08,92.08 519.32,314.33 663.79,469.24 260.91,279.76 428.59,573.74 549.89,954.47 30.42,95.49 34.1,223.75 69.65,309.32 5.05,-408.05 -221.12,-882.62 -412.87,-1130.82l-381.73 -394.51c-113.09,-99.77 -327.6,-233.31 -461.11,-299.62 -399.87,-198.6 -805.26,-258.76 -1268.66,-261.11 -621.5,-3.15 -776.36,85.55 -1297.52,240.7z"/>
   <path class="fil14" d="M11653.87 1142.1c-13.9,107.8 24.64,50.91 145.74,232.47 49.85,74.73 121.02,184.78 153.79,281.14 -42.14,-21.04 -8.5,-1.69 -37.24,-23.22l-81.07 -82.62c-64.12,-60.77 -329.38,-255.97 -417.04,-224.36 -4.63,61.48 73.03,124.98 158.29,224.31 51.35,59.83 139.13,155.24 171.71,222.17 -83.85,-34.48 -286.63,-210 -300,-210.95 -27.05,37.64 -7.74,79.08 15.12,117.52 42.58,71.6 159.69,233.97 216.73,267.7 -79.72,-8.93 -260.41,-140.76 -338.07,-176.57 61.54,97.82 415.16,281.31 526.11,285.41 -27.26,-90.15 -109.21,-73.67 -253.55,-266.04l240.25 127.09c138.04,4.91 -66.88,-222.06 -113.1,-311.67 85.86,27.68 23.83,2.81 115.87,100.62 230.18,244.6 198.46,323.83 300.36,311.02 48.65,-170.17 -266.92,-656.1 -274.22,-679.56 201.72,113.14 419.92,317.91 554.76,499.6 35.39,47.68 31.18,62.9 93.64,70.76 -11.42,-128.18 -176.29,-347.52 -243.39,-439.35 -108.81,-148.91 -198.65,-233.66 -342.59,-344.55l181.01 199.71c66.16,78.84 121.65,133.06 169.37,236.46l-85.96 -63.32c-97.66,-112.48 -475.76,-388.5 -556.52,-353.77z"/>
   <path class="fil15" d="M13390.32 2839.96l-31.41 82.24c22.57,5.73 135.41,-7.99 194.7,-5.39 -135.43,344.8 -178.01,636.55 -126.31,1020.84 50.78,377.41 128.56,558.22 304.23,843.6 1.26,2.05 4.82,12.65 5.71,10.23 0.89,-2.43 4.04,6.76 5.58,10.36 -105.38,41.67 -147.13,5.35 -196.67,61.58 20.34,11.39 23.81,11.19 41.85,29.62 30.92,31.6 31.57,1.47 13.19,31.53 73.41,86.58 245.59,46.27 361.07,32.94 43.86,-5.06 90.48,-8.37 123.85,-30.7 -143.47,-66.78 -277.56,-236.16 -361.08,-395.77 -85.91,-164.19 -143.68,-376.2 -175.57,-586.25 -72.11,-474.78 36.12,-971 287.98,-1213.96 -98.15,1.59 -371.41,19.97 -447.12,109.13z"/>
   <path class="fil16" d="M7939.22 5697.65l89.98 698.26c1.16,2.63 3.67,7.71 5.93,11.32 1.95,-159.81 23.46,-86.43 46.36,-152.31 -23.53,-39.33 -24,-116.63 0.35,-156.35 -45.21,-655.36 -93.47,-1272.42 -42.54,-1931.87 23.65,-306.11 62.44,-609.97 124.22,-901.51 63.41,-299.26 142.43,-522.8 228.36,-795.73 -43.45,18.33 -25.74,3.88 -54.59,62.53 -76.64,155.79 -169.07,435.5 -215.53,595.76 -279.36,963.41 -202.99,1631.3 -182.54,2569.9z"/>
   <path class="fil6" d="M8496.95 6925.34l-11.58 283.89c-208.14,1.01 -142.26,-12.2 -164.51,32.93 1.87,-16.91 5.09,-25.08 0,-47.74l-26.76 5.94c-41.28,190.98 165.52,955.87 230.51,1153.72 55.66,169.46 131.18,334.18 214.47,481.16 54.62,96.39 217.51,362.3 296.36,398.16 -13.44,-54.27 -42.73,-96.5 -62.64,-145.73 -18.29,-45.24 -35.16,-110.38 -66.81,-138.39 -117.25,-164.64 -268.3,-781.18 -313.3,-1033.22 -35.38,-198.12 -60.9,-407.27 -68.59,-609.66 -5.65,-148.99 24.51,-565.1 5.73,-659.48l-1.44 -32.72c-8.39,56.38 -9.25,107.16 -17.28,152.32 -11.71,65.9 -18.81,90.82 -14.16,158.82z"/>
   <path class="fil7" d="M11712.38 8226.57c13.83,-48.16 -4.32,-53.51 -22.99,-92.24 -15.33,-31.77 -26.77,-56.95 -38.33,-91.27 -20.43,-60.69 -38.02,-137.78 -51.17,-206.64 -78.35,-410.36 167.11,-1125.77 271.28,-1222.4l336.31 -747.19c169.17,-340.25 343.97,-895.73 444.25,-1298.75 59.49,-239.06 263.91,-1366.57 171.21,-1530.47 -36.25,920.77 -333.51,1931.23 -639.86,2678.68 -289.9,707.3 -937.9,1628.98 -470.7,2510.28z"/>
   <path class="fil0" d="M8499.4 4800.62c48.87,-113.99 87.76,-154.66 171.77,-180.32 -26.75,49.39 -129.27,145.95 -171.77,180.32zm-102.35 -338.15c-0.45,93.32 -65.6,243.01 -71.42,387.57 -5.65,140.18 13.45,279.25 66.23,400.19 78.48,179.82 260.11,358.72 413.64,477.56 24.18,18.72 17.71,7.9 26.78,26.26 -0.43,-202.36 94.58,-318.2 -64.71,-474.2 -85.17,-83.41 -193.66,-209.06 -158.74,-411.97 -0.5,-2.49 -1.29,-6.39 -1.18,-7.54 0.11,-1.18 -0.41,-6.35 -0.16,-7.86l19.73 -53.54c37.71,-117.05 108.62,-206.57 101.5,-329.93l-99.68 31.06 13.87 75.24c-32.73,34.45 -79.34,50.77 -131.37,124.18 -34.88,49.21 -44.62,131.91 -46.72,202.4 -28.91,-70.2 -28.79,-151.52 -0.83,-234.08 13.47,-39.75 29.67,-70.08 52.45,-92.77l64.11 -58.89c1.87,-7.06 6.72,-7.72 9.88,-11.74l89.61 -51.16 -282.99 9.22z"/>
   <path class="fil4" d="M7680.29 3460.78c1.13,2.67 1.4,7.27 1.33,8.59 -0.07,1.31 0.76,6.96 0.52,8.58l-8.56 26.12c-0.02,0.03 -22.92,30.83 -27.05,37.16 -201.77,309.66 -162.3,1004.93 -87.3,1346.39 27.08,123.26 130.33,353.89 133.91,420.7 19.8,55.38 3.59,31.22 43.92,56.46 -25.56,-601.53 -37.61,-1383.13 47.29,-1975.29 -72.38,29.49 -60.97,19.78 -104.06,71.29z"/>
   <path class="fil16" d="M8148.07 5859.31c40.87,-85.45 24.01,12.87 29.7,79.13 19.25,-49.46 16.76,-33.01 95.26,-33.12l458.7 3.92c-24.81,-39.15 -14.8,-2.28 -4.44,-57.93 -227.61,-106.05 -476.84,-426.79 -537.4,-704.42 -39.74,-182.16 -32.47,-362.93 28.12,-532.5 47.46,-132.82 -17.91,-156.22 -66.98,-351.47l-23.11 -91.35c-1.61,-4.29 -3.81,-8.91 -5.4,-12.74l-12.44 -24.91c-31.94,241.69 -36.61,1582.45 37.99,1725.39z"/>
   <path class="fil8" d="M10204 10319.19l38.11 -201.91c18.41,-109 -4.94,-120.32 -63.46,-164.32 -89.05,-66.94 -153.25,-225.16 -42.92,-355.15 17.72,39.73 5.22,62.58 31.78,107.42 31.02,-82.22 74.13,-148.06 76.6,-259.11 2.24,-100.3 -34.04,-201.33 -36.59,-307.81l34.2 -9.32c33.66,-8.26 9.13,3.29 30.66,-6.86 -39.82,-50.55 -97.19,-182.05 -94.39,-266.46 55.72,-20.78 47.52,-6.64 111.32,17.72l-50.93 -81.93c-119.98,-163.16 -227.89,-318.83 -262.14,-545.97 -65.25,-432.57 41.63,-580.3 59.45,-844.37 -50.44,36.37 -40.47,41.2 -70.92,71.42 -75.53,-11.3 -66.55,-12.52 -121.41,-67.39l-19.41 -18.9c7.19,35.78 16.04,73.39 37.75,102.16 20.9,27.7 26.27,23.81 51.17,30.18l19.62 1.63c-148.45,528.29 -40.38,911.05 214.31,1262.11 -20.01,9.72 -26.12,-22.01 -63.69,0 -26.67,188.89 103.58,279.36 85.2,308.82l-14.53 24.23c-21.98,55.68 -9.67,89.01 -5.65,168.51 4,78.91 2.7,147.89 -1.31,226.58 -57.31,41.56 54.26,-32.53 -18.5,7.26l-21.18 13.87c-72.29,63.32 -151.43,207.53 -123.86,341.31 14.58,70.76 62.09,145.83 94.46,196.27 100.57,156.7 39.18,52.05 59.48,230.55l66.78 19.46z"/>
   <path class="fil17" d="M13207.79 5271.17l28.39 17.22c91.15,38.58 227.96,13.33 378.43,13.35 156.42,0.02 312.84,0 469.25,0l18.81 64.3c-2.55,-138.43 5.93,-220.95 -9.73,-360 -366.27,48.05 -464.02,94.2 -712.91,-163.94l-74.11 -75.43 -98.13 504.5z"/>
   <path class="fil11" d="M13207.79 5271.17l-66.39 242.71c42.72,41.16 36.9,-56.64 35.86,59.54 0.02,-0.03 -38.8,-12.54 62.91,-18.9 28.26,-1.77 69.83,0.92 99.37,1.34l13.99 -65.34c20.38,123.23 20.76,59.22 50.65,87.92l-16.02 0.04c0,151.44 -9.73,33.72 46.28,80.87 -15.08,-101.54 -8.62,-32.5 9.09,-57.92l8.2 96.67c-13.53,-8.88 3.37,-53.82 17.26,-73.97l244.73 0 12.68 195.16c-36.33,-64.1 -8.53,-175.35 -1.99,-251.42 21.83,33.42 13.69,22.25 47.5,42.93 29.42,-158.98 4.55,-133.82 36.88,-53.17l261.24 -2.11c64.82,10.67 45.66,-20.32 46.27,34.08 0,-10.96 -2.15,-72 -1.35,-76.43 11.78,-64.59 12.07,-55.73 37.33,-80.19l-30.99 -421.05 -28.35 -5.89c15.66,139.05 7.18,221.57 9.73,360l-18.81 -64.3c-156.41,0 -312.83,0.02 -469.25,0 -150.47,-0.02 -287.28,25.23 -378.43,-13.35l-28.39 -17.22z"/>
   <path class="fil18" d="M8164.3 6193.31l18.48 177.99c61.94,-61.55 33.98,-2.46 43.6,69.81 6.81,51.22 15.23,71.94 16.12,137.08 30.13,-66.81 18.32,-53.64 111.95,-53.02 22.43,0.15 64.76,-1.72 84.03,-0.42 98.44,6.63 45.04,-9.67 63.07,24.54l16.18 -96.92c9.37,2.59 25.4,-5.79 28.67,5.34 11.88,40.47 13.41,5.67 23.75,10.68l6.48 -72.41 -2.5 25.28c32.45,32.07 27.55,14.03 35.75,79.06 2.45,19.41 -3.2,82.57 -3.25,93.08l186.07 10.96 21.7 -164.09 7.21 78.67c54.6,91.42 -23.34,307.43 41.2,396.71l34.25 102.23c74.37,34.91 64.94,-25.46 75.96,46.68 -4.01,-90.36 -11.08,-163.57 -10.92,-256.2 0.08,-48.77 1.79,-99 4.43,-147.71 3.76,-69.72 -17.56,-146.31 17.47,-90.21l48.07 -281.57 -821.39 -7.78 -28.81 -126.05c31.22,69.36 -1.05,19.31 -17.57,38.27z"/>
   <path class="fil18" d="M13062.52 5756.59l-132.51 339.8c4.14,3.54 9.47,3.97 11.95,11.13 2.39,6.86 8.65,8.04 11.98,10.09 104.63,64.45 -75.25,-12.03 35.98,19.24 11.05,3.11 77.49,1.07 93.45,1.07l9.08 141.83c-19.76,-27.33 -12.17,-69.55 -12.92,-117.58 -1.22,-78.68 -7.84,-118.2 37.25,-162.87 1.36,-62.67 -2.92,-33.14 16.01,-63.01l28.39 49.62c43.23,-0.86 88.62,-2.32 131.25,-2.17 74.4,0.27 72.62,-6.9 109.49,32.21l-2.75 -170.87c18.51,12.76 -27.49,80.35 40.65,127.69l25.09 204.52c4.89,2.27 24.6,10.41 28.7,11.51l28.55 7.77c77.19,13.51 110.24,-13.34 180.17,11.79 3.95,1.41 14.66,6.87 18.44,10.71l12.12 -370.96c-11.22,70.82 -15.46,188.37 6.16,258.84 25.12,21.74 12.11,-1.35 19.44,39.6 3.43,19.22 2.38,43.91 2.65,62.94 24.76,-22.26 28.57,-36.58 33.5,-96.45 2.01,-24.5 -1.87,-84.9 -2.05,-113.84 -0.49,-75.97 4.01,-153.53 -5.7,-228.11 -17.36,-60.71 -34.54,-111.47 -14.98,-160.29 -33.81,-20.68 -25.67,-9.51 -47.5,-42.93 -6.54,76.07 -34.34,187.32 1.99,251.42 -97.31,20.03 -198.8,23.02 -289.52,-14.15l-2.44 -145.79c-56.01,-47.15 -46.28,70.57 -46.28,-80.87l16.02 -0.04c0,62.84 -10.24,45.2 16.18,64.89 -3.89,77.03 -48.38,74.41 -48.38,177.9 2.08,-2.66 57.02,-2.48 -29.96,-14.28l-212.75 -1.81c30.08,27.16 15.35,24.6 13.67,-42.49l-80.42 -6.06z"/>
   <path class="fil6" d="M11871.17 6614.02c-104.17,96.63 -349.63,812.04 -271.28,1222.4 13.15,68.86 30.74,145.95 51.17,206.64 11.56,34.32 23,59.5 38.33,91.27 18.67,38.73 36.82,44.08 22.99,92.24 22.34,40.17 24,38.4 39.3,77.5 12.71,-18.85 28.26,-6.16 0.07,-100.01 -38.2,-127.17 -53.46,-240.38 -51.86,-376.42 5.28,-450.49 202.59,-903.92 418.64,-1266.63 -20.74,-0.16 -18.67,-8.02 -31.03,-12.24 -11.27,-3.86 5.85,-9.33 -33.62,-9.32 -69.35,112.41 -57.62,54.86 -182.71,74.57z"/>
   <path class="fil19" d="M13601.19 4924.57c18.38,-30.06 17.73,0.07 -13.19,-31.53 -18.04,-18.43 -21.51,-18.23 -41.85,-29.62 -2.84,-3.79 -5.7,-9.14 -7.39,-12.15l-53.99 -96.91c-193.71,-267.97 -323.76,-1006.25 -269.9,-1373.79 15.1,-103.05 78.62,-393.17 144.04,-458.37l31.41 -82.24c-114.18,50.17 -222.89,287.86 -265.57,468.45 -94.36,399.19 -39.04,873.19 133.4,1234.67 56.99,119.45 167.76,280.26 275.48,355.85 55.4,38.88 21.88,20.7 67.56,25.64z"/>
   <path class="fil20" d="M12681.07 5559.05c-41.66,148.29 -177.58,416 -251.55,544.69 43.13,-8.46 4.38,22.86 55.35,-35.8 8.75,-10.06 36.02,-52.19 47.19,-68.19 32.38,-46.4 53.42,-89.45 99.23,-87.77 1.23,3.63 1.99,5.84 1.99,11.33l-2.84 45.5c-3.34,12.43 -23.58,54.63 -29.71,68.49l-173.34 388.68 123.89 -179.53c40.37,-59.61 87.87,-130.4 126.23,-197.45 59.37,-103.8 183.91,-313.37 220.86,-431.64 -27.59,109.71 -211.69,510.82 -272.73,568.04 47.52,-5.76 35.93,-9.92 98.75,-14.97 5.62,-0.45 51.94,-2.19 56.42,-1.95 19.01,1.01 0.67,-9.99 56.15,8.65 11.58,-41.19 195.09,-525.85 210.51,-550.15 -4.11,-0.63 -10.06,1.1 -12.42,1.16 -2.2,0.05 -9.07,0.86 -11.61,0.81 -3.51,-0.06 -15.35,-0.26 -18.66,-0.88 -62.25,-11.83 39.63,-31.3 -69.84,-20.45 36.8,-154.07 6.3,-59.73 -21.02,-93.74 -16.74,58.51 -6.33,43.21 -42.21,86.36 -10.06,-47.86 -25.97,-25.76 -99.73,-28.07l-85.27 -10.88c-0.53,-2.18 -3.82,-1.36 -5.64,-2.24z"/>
   <path class="fil6" d="M8862.81 6915.65c-28.3,188.45 94.19,581.66 155.86,750.13 55.33,151.16 221.29,533.95 309.34,613.97 7.12,-323.4 69.55,-199.55 -58.34,-427.23 -66.14,-117.77 -110.67,-221.64 -156.97,-360.3 -157.55,-471.88 -85.46,-778.32 -128.7,-921.78 -35.03,-56.1 -13.71,20.49 -17.47,90.21 -2.64,48.71 -4.35,98.94 -4.43,147.71 -0.16,92.63 6.91,165.84 10.92,256.2 -11.02,-72.14 -1.59,-11.77 -75.96,-46.68l-34.25 -102.23z"/>
   <path class="fil10" d="M12868.29 4979.91c14.86,17.18 33.77,35.68 34.37,66.28l244.81 -4.13 28.19 -89.88c3.94,24.65 21.69,31.71 30.94,43.75 43.14,-401.39 89.43,-188.1 -28.73,-468.88 -60.33,-143.36 -113.83,-298.95 -134.3,-472.57 -25.02,39.99 -22.24,49.96 -26.71,102.78 -17.39,205.93 -82.95,665.96 -148.57,822.65z"/>
   <path class="fil13" d="M13986.15 2722.23c-13.39,16.15 -9.48,11.09 -26.14,27.71 -0.47,0.47 -21.56,20.77 -25.61,24.55 -141.2,132.04 -208.83,226.86 -258.81,440.19 -54.38,232.08 -65.24,494.35 -22.25,738.8 58.03,330.03 167.65,606.83 399.46,815.04 101.12,90.82 149.09,93.32 276.24,125.47l76.22 -8.65c-106.07,-53.66 -185.09,-29.55 -289.83,-130.95 -103.82,-100.51 -103.17,-97.85 -175.23,-229.73 -204.96,-375.11 -287.44,-951.6 -172.84,-1366.79 98.8,-357.98 233.68,-360.61 348.67,-462.91l-129.88 27.27z"/>
   <path class="fil19" d="M9706.66 6118.14c-36.27,-25.06 -380.62,-114.42 -463.54,-147.07 -179.15,-70.53 -265.8,-127.78 -410.84,-217.02 -9.07,-18.36 -2.6,-7.54 -26.78,-26.26 -153.53,-118.84 -335.16,-297.74 -413.64,-477.56 -52.78,-120.94 -71.88,-260.01 -66.23,-400.19 5.82,-144.56 70.97,-294.25 71.42,-387.57l-113.18 -15.97c63.55,109.71 -14.25,182.47 -37.52,311.6 -21.35,118.46 -18.55,240.75 5.26,358.74 47.34,234.62 181.95,402.02 305.42,519.54 337.97,321.66 596.91,368.04 1149.63,481.76z"/>
   <path class="fil6" d="M9086.71 7202.88c-14.86,104.27 186.26,686 280.14,763.71 22.08,-174.18 104.59,-146.29 87.49,-345.01 -11.27,-131 17.88,-315.96 -2,-424.11l-34.36 38.91c-27.55,-31.03 5.88,-11.24 -44.17,-22.16 -58.45,-12.76 -210.85,10.52 -254.3,-4.64 -89.85,-31.33 68.55,-76.82 -32.8,-6.7z"/>
   <path class="fil17" d="M12577.58 5452.66c-5.15,128.78 -101.36,286.58 -141.32,398.81 28.14,-31.97 34.76,-51.53 97.06,-66.56 179.33,-223.02 490.1,-1425.35 491.49,-1807.63 0.42,-115.24 -12.77,-224.99 -9.95,-346.71 -17.89,38.54 -235.87,1519.77 -437.28,1822.09z"/>
   <path class="fil8" d="M10902.42 10142.55c-363.99,120.18 -235.15,287.95 153.93,266.82 88.42,-4.8 181.72,-46.49 219.23,-48.59 -158.17,4.04 -369.63,47.63 -505.62,-57.45 30.5,-49.76 76.13,-55.74 130,-76.91 72.71,-28.57 91.15,-36.49 101.42,-117.26 -97.34,-153.34 -441.22,-49.19 -411.75,-292.45 181.87,-108.76 672.89,110.35 1022.02,-93.77 -581.98,102.97 -585.41,-45.06 -926.75,-28.53 -253.11,12.26 -299.8,325.53 113.28,415 3.95,0.86 50.98,10.4 53.26,11.09l50.98 22.05z"/>
   <path class="fil21" d="M10408.08 8900.12c32.69,-131.28 31.85,-151.38 149.16,-190.02l41.35 181.38 -190.51 8.64zm166.04 -279.6c-16.9,56.44 19.79,9.4 -34.23,48.42 -62.43,45.09 -113.12,44.51 -181.78,30.96 -46.58,-57.78 -55.65,-67.66 -6.8,-120.67 79.43,6.26 153.68,6.62 222.81,41.29zm-115.37 -182.86c79.2,-4.32 111.99,4.86 182.01,22.19 -1.93,51.39 -19.93,76.79 -35.75,110.54l-281.51 -36.4c3.39,-96.05 17.3,-89.89 135.25,-96.33zm-71.45 -36.34c-26.66,-160.53 -40.18,-342.61 -47.91,-505.32 -12.73,-268.34 -55.99,-447.34 87.48,-407.17 28.52,76.31 25.04,353.33 33.77,467.91 11.34,148.9 29.36,294.97 52.42,439.68l-125.76 4.9zm26.71 364.83c-26.66,57.85 -45.98,94.31 -35.19,161.22 76.63,15.36 193.09,11.09 260.1,-9.87 4.82,-139.95 -74.76,-165.23 -19.56,-296.59 30.46,-72.47 61.66,-73.77 65.9,-178.85l-134.18 -45.4c-6.06,-189.46 -51.33,-436.17 -61.81,-649.86 -4.17,-85.09 26.79,-255.99 -57.19,-297.61 -152.71,-75.67 -144.45,93.4 -141.24,200.44 6.84,228.21 20.55,448.68 46.77,673.06 15.26,130.66 10.15,61.45 -32.81,127.78 -46.7,72.11 -2.15,55.72 -6.74,116.83 -8.55,113.87 -53.47,104.79 83.72,179.25 21.9,11.89 22.58,11.69 32.23,19.6z"/>
   <path class="fil22" d="M11349.22 8713.26l99.07 18.85 47.64 222.19c-66.34,-2.37 -166.6,-2.41 -203.66,-34.67 -21.55,-5.77 -26.29,14.43 -7.22,-102.54 21.56,-132.23 21.61,-90.11 64.17,-103.83zm0.16 -155.51l120.93 23.54c22.18,54.76 54.55,144.01 -87.14,102.69 -60.73,-17.71 -7.83,-0.94 -34.9,-19.36 -62.56,5.13 -64.17,-1.37 -111.07,-26.82l0.97 -109.62c47.38,-3.08 80.32,7.52 111.21,29.57zm64.56 -199.38c62.36,41.73 86.8,26.23 133.97,100.34 -22.84,26.26 -46.76,46.77 -88.25,64.7 -84.17,36.38 -91.58,-21.97 -92.29,-22.71 -67.17,0.77 -121.85,-28.29 -160.52,-58.33 2.34,-162.92 84.83,-108.4 207.09,-84zm-138.18 -68.83c-27.78,-143.35 -93.08,-705.15 -32.34,-812.94l63.2 -4.13c65.5,79.45 75.64,679.51 94.37,843.44l-125.23 -26.37zm0.44 400.83c-22.89,86.71 -52.71,174.7 -34.43,265.15 73.64,38.02 200.91,41.36 274.09,25.58 17.23,-73.01 -0.38,-177.44 -32.53,-247.11 24.62,-42.73 17.84,-18.78 59.32,-64.93 -6.29,-39.08 -2.86,-27.99 -18.65,-61.76l-30.63 -51.5c57.25,-41.58 90.85,-35.04 91.2,-125.97 -31.12,-49.97 -71.18,-73.71 -146.33,-88.99 -6.95,-203.07 -29.35,-421.81 -47.76,-626.63 -8.21,-91.42 0.44,-225.74 -65.02,-268.25 -239.49,-155.53 -110.76,599.54 -95.61,783.23 11.2,135.78 -105.08,71.86 -39.9,243.48 18.78,49.46 16.11,-32.62 10.02,60.93 -1.55,23.65 -11,29.72 -7.68,69.25 4.6,54.82 36.21,76 83.91,87.52z"/>
   <path class="fil23" d="M13132.79 5936.29c-11.13,44.94 -11.67,43.58 -7.11,96.31 0.56,6.5 6.13,37.53 8.06,44.48 13.4,48.24 2.58,16.88 15.28,36.27l9.4 -57.58c19.11,179.33 22.81,328.47 18.03,510.14 11.09,-56.08 16.55,-37.84 96.49,-38.37 48.1,-0.33 98.41,1.54 147.08,1.54l6.99 176.17c-8.52,-89.25 -32.24,-349.6 27.53,-430.66l-14.72 -301.82c-68.14,-47.34 -22.14,-114.93 -40.65,-127.69l2.75 170.87c-36.87,-39.11 -35.09,-31.94 -109.49,-32.21 -42.63,-0.15 -88.02,1.31 -131.25,2.17l-28.39 -49.62z"/>
   <path class="fil24" d="M12226.65 5881.07c-26.76,93.36 -172.06,332.52 -149.22,396.68 95.78,-23.11 81.34,-142.39 159.22,-155.95 73.87,-12.87 -3.15,68.59 99.45,-74.87 54.41,-76.09 73.33,-59.89 98.46,-49.77l98.76 -212.25c-62.3,15.03 -68.92,34.59 -97.06,66.56 39.96,-112.23 136.17,-270.03 141.32,-398.81 -81.48,-6.62 -61.67,8.65 -96.5,92.74 -32.38,78.18 -154.1,312.82 -215.19,377.99 79.92,-253.98 292.55,-685.26 344.03,-928.55 -113.98,211.63 -236.64,610.33 -383.27,886.23z"/>
   <path class="fil13" d="M7693.14 5308.32c-3.58,-66.81 -106.83,-297.44 -133.91,-420.7 -75,-341.46 -114.47,-1036.73 87.3,-1346.39 4.13,-6.33 27.03,-37.13 27.05,-37.16l8.56 -26.12c0.24,-1.62 -0.59,-7.27 -0.52,-8.58 0.07,-1.32 -0.2,-5.92 -1.33,-8.59 -405.15,365.48 -323.18,1370.6 -27.07,1800.03 21.54,31.23 -9.77,-10.71 14.35,19.58 24.03,30.17 8.78,10.98 25.57,27.93z"/>
   <path class="fil7" d="M12687.02 3587.09c-34.41,-336.41 52.03,-401.51 -101.34,-912.48 -58.99,-196.52 -186.74,-518.63 -318.72,-686.57l-16.64 -19.75c39.32,133.77 102.54,271.99 147.7,409.69 98.83,301.38 165.03,566.68 213.36,886.76 24.41,161.63 30.97,338.3 56.61,496.96 15.75,-70.98 28.79,-102.94 19.03,-174.61z"/>
   <path class="fil8" d="M9589.67 8928.04c15.44,-16.48 -26.26,-275.1 -27.71,-339.87 -3.32,-147.4 20.74,-260.02 32.31,-396.7l-109.79 -345.12c-91.62,111.2 -99.28,432.59 -71.38,588.13 19.19,106.93 126.13,436.46 176.57,493.56z"/>
   <path class="fil17" d="M12868.29 4979.91l-122.53 404.08 56.62 -16.35c97.96,-12 251.68,11.25 312.03,0.61l92.19 -372.32c-9.25,-12.04 -27,-19.1 -30.94,-43.75l-28.19 89.88 -244.81 4.13c-0.6,-30.6 -19.51,-49.1 -34.37,-66.28z"/>
   <path class="fil25" d="M11871.17 6614.02c125.09,-19.71 113.36,37.84 182.71,-74.57 39.47,-0.01 22.35,5.46 33.62,9.32 12.36,4.22 10.29,12.08 31.03,12.24 35.54,-86.04 110.76,-194.71 158.56,-281.54 52.72,-95.75 112.29,-186.33 157.47,-282.31 -25.13,-10.12 -44.05,-26.32 -98.46,49.77 -102.6,143.46 -25.58,62 -99.45,74.87 -77.88,13.56 -63.44,132.84 -159.22,155.95 -22.84,-64.16 122.46,-303.32 149.22,-396.68l-19.17 -14.24 -336.31 747.19z"/>
   <path class="fil26" d="M9043.68 6258.2l-13.13 97.09c44.85,32.63 46.6,4.32 29.22,171.89 45.06,-37.7 351.42,-16.96 414.3,-16.96 -1.76,86.01 -9.19,-13.15 29.66,13.53 21.74,-33.62 50.82,-94.78 68.32,-134.88 33.05,-75.8 0.3,-106.2 25.94,-163.19 -61.36,-21.57 -6.06,-26.91 -44.68,0.08 0,44.27 -8.82,58.93 11.7,82.94 -21.12,-26.26 6.83,-27.37 -124.3,-26.31 -43.43,0.34 -86.68,0.98 -130.2,1.02 -112.03,0.11 -172.55,13.19 -266.83,-25.21z"/>
   <path class="fil20" d="M9018.19 6517.09c56.75,53.13 33.35,171.32 33.35,242.63 70.31,-19.68 278.97,-6.01 373.63,-5.64 3.96,0.02 48.26,-3.18 50.08,-3.85 2.79,-1.02 6.82,-3.18 9.4,-4.57l36.37 -33.26 -17.29 -188.65c-38.85,-26.68 -31.42,72.48 -29.66,-13.53 -62.88,0 -369.24,-20.74 -414.3,16.96 17.38,-167.57 15.63,-139.26 -29.22,-171.89l-12.36 161.8z"/>
   <path class="fil27" d="M9038.9 6907.01l30.24 48.41 340.33 3.45c69.87,4.37 56.87,32.55 67.4,-36.96 23.53,42.88 -7.86,-39.61 22.05,43.98 74.26,-81.79 50.8,-158.91 22.1,-253.49l-36.37 33.26c-2.58,1.39 -6.61,3.55 -9.4,4.57 -1.82,0.67 -46.12,3.87 -50.08,3.85 -94.66,-0.37 -303.32,-14.04 -373.63,5.64 0,-71.31 23.4,-189.5 -33.35,-242.63 -2.63,112.62 -28.27,303.69 20.71,389.92z"/>
   <path class="fil8" d="M10488.31 10422.82c36.03,-47.87 19.14,-51.34 0.28,-163.17 -69.67,-413.14 -113.46,-394.39 53.03,-618.43 101.98,-137.23 117.4,13.85 485.32,-86.8 -24.81,-13.78 -434.8,-76.18 -470.41,-76.4l-39.11 41.61c-121.01,176.54 -184.19,237.15 -164.21,383.04l48.66 444.39c14.02,74.96 -2.59,55.23 86.44,75.76z"/>
   <path class="fil28" d="M12772.92 6498.6c44.01,40.87 90.74,209.55 108.49,281.56l53.05 300.34c35.15,68.2 1.68,14.22 32.92,36.49 58.46,-110.48 139.46,-491.54 123.47,-624.66l-26.3 11.58c-16.57,-55.69 13.86,-24.31 -48.04,-34.06 -69.06,-10.87 -145.79,0.22 -206.65,19.59 -3.66,1.16 -30.83,7.7 -36.94,9.16z"/>
   <path class="fil29" d="M9038.9 6907.01c-10.87,56.27 4.53,155.39 18.41,218.1l29.4 77.77c101.35,-70.12 -57.05,-24.63 32.8,6.7 43.45,15.16 195.85,-8.12 254.3,4.64 50.05,10.92 16.62,-8.87 44.17,22.16l34.36 -38.91c30.69,-47.91 51.06,-165.93 46.58,-231.58 -29.91,-83.59 1.48,-1.1 -22.05,-43.98 -10.53,69.51 2.47,41.33 -67.4,36.96l-340.33 -3.45 -30.24 -48.41z"/>
   <path class="fil8" d="M9421.99 9904.43c2.7,-2.45 3.89,-12.45 3.98,-10.19 0.07,1.69 21.18,0.39 -27.05,-80.49 -118.49,-198.68 -14.01,-448.5 57.52,-643.11 28.1,-76.43 48.45,-170.78 75.04,-243.24 -4.59,-48.97 -14.57,-64.15 -45.75,-96.98 -98.32,446.03 -269.39,411.84 -307.23,534.42 -19.92,152.88 169.84,449.13 243.49,539.59z"/>
   <path class="fil30" d="M11275.76 8289.54l125.23 26.37c-18.73,-163.93 -28.87,-763.99 -94.37,-843.44l-63.2 4.13c-60.74,107.79 4.56,669.59 32.34,812.94z"/>
   <path class="fil30" d="M10387.3 8401.32l125.76 -4.9c-23.06,-144.71 -41.08,-290.78 -52.42,-439.68 -8.73,-114.58 -5.25,-391.6 -33.77,-467.91 -143.47,-40.17 -100.21,138.83 -87.48,407.17 7.73,162.71 21.25,344.79 47.91,505.32z"/>
   <path class="fil31" d="M8239.99 6840.71l229.12 3.89 27.84 80.74c-4.65,-68 2.45,-92.92 14.16,-158.82 8.03,-45.16 8.89,-95.94 17.28,-152.32l1.44 32.72c28.65,-47.24 19.05,-118.79 40.32,-178.53 -10.34,-5.01 -11.87,29.79 -23.75,-10.68 -3.27,-11.13 -19.3,-2.75 -28.67,-5.34l-16.18 96.92c-18.03,-34.21 35.37,-17.91 -63.07,-24.54 -19.27,-1.3 -61.6,0.57 -84.03,0.42 -93.63,-0.62 -81.82,-13.79 -111.95,53.02 -0.89,-65.14 -9.31,-85.86 -16.12,-137.08 -9.62,-72.27 18.34,-131.36 -43.6,-69.81l57.21 469.41z"/>
   <path class="fil27" d="M13790.34 6099.97l-5.99 199.54c95.99,-45.86 266.87,-7.3 387.49,-28.22 -3.65,-22.14 -9.91,-64.24 -8.62,-94.32 3.03,-70.66 -2.74,-55.82 34.8,-102.21l-13.82 -204.9 -28.65 46.92c-7.1,18.78 -8.08,29.38 -9.5,49.26 -1.12,15.62 4.7,71.02 5.79,89.29 -27.68,-58.58 13.69,-26.91 -52.02,-38.01l-274.86 0.52c-12.33,24.73 -5.66,19.28 -16.5,45.1 -1.72,4.1 0.8,56.59 -11.68,24.56 -0.98,-2.52 -3.77,8.63 -6.44,12.47z"/>
   <path class="fil20" d="M13783 5796.83l7.34 303.14c2.67,-3.84 5.46,-14.99 6.44,-12.47 12.48,32.03 9.96,-20.46 11.68,-24.56 10.84,-25.82 4.17,-20.37 16.5,-45.1l274.86 -0.52c65.71,11.1 24.34,-20.57 52.02,38.01 -1.09,-18.27 -6.91,-73.67 -5.79,-89.29 1.42,-19.88 2.4,-30.48 9.5,-49.26l28.65 -46.92 -4.81 -89.96 -45.86 42.72 -17.31 -79.96 -291.26 0c-26.38,59.56 -13.81,26.44 -41.96,54.17z"/>
   <path class="fil23" d="M12930.01 6096.39c-36.6,118.4 -157.75,304.41 -157.09,402.21 6.11,-1.46 33.28,-8 36.94,-9.16 60.86,-19.37 137.59,-30.46 206.65,-19.59 61.9,9.75 31.47,-21.63 48.04,34.06l26.3 -11.58c53.05,-74.74 25.77,-382.74 25.93,-493.03 -45.09,44.67 -38.47,84.19 -37.25,162.87 0.75,48.03 -6.84,90.25 12.92,117.58l-9.08 -141.83c-15.96,0 -82.4,2.04 -93.45,-1.07 -111.23,-31.27 68.65,45.21 -35.98,-19.24 -3.33,-2.05 -9.59,-3.23 -11.98,-10.09 -2.48,-7.16 -7.81,-7.59 -11.95,-11.13z"/>
   <path class="fil24" d="M12429.52 6103.74l-196.82 378.49c108.25,-10.97 57.21,-88.45 183.26,-173.57l-133.78 319.89c104.64,-12.84 80.14,-94.78 170.92,-153.42 28.89,-84.59 128.06,-188.2 172.54,-289.73 61.04,-57.22 245.14,-458.33 272.73,-568.04 -36.95,118.27 -161.49,327.84 -220.86,431.64 -38.36,67.05 -85.86,137.84 -126.23,197.45l-123.89 179.53 173.34 -388.68c6.13,-13.86 26.37,-56.06 29.71,-68.49l2.84 -45.5c0,-5.49 -0.76,-7.7 -1.99,-11.33 -45.81,-1.68 -66.85,41.37 -99.23,87.77 -11.17,16 -38.44,58.13 -47.19,68.19 -50.97,58.66 -12.22,27.34 -55.35,35.8z"/>
   <path class="fil7" d="M9332.32 8920.23c2.53,-17.41 23.84,12.11 -46.3,-46.45 -289.5,-241.69 -489.57,-694.87 -623.96,-1045.56l-73.7 -187.4c37.13,297.39 122.69,554.74 239.15,782.53 53.71,105.06 139.13,222.67 205.49,297.19 42.74,47.99 210.91,190.64 299.32,199.69z"/>
   <path class="fil32" d="M13784.35 6299.51l-7.01 182.25 366.99 3.62c4.85,0.84 32.27,6.25 34.57,3.97 2.72,-2.71 9.22,14.77 11.86,-53.16 8.68,54.41 17.24,25.44 35.55,48.38l-28.29 -409.81c-37.54,46.39 -31.77,31.55 -34.8,102.21 -1.29,30.08 4.97,72.18 8.62,94.32 -120.62,20.92 -291.5,-17.64 -387.49,28.22z"/>
   <path class="fil27" d="M8565.68 6651.26l43.17 310.24 167.69 0.02 28.1 79.2c-8.37,-79.23 -18.28,-164.4 20.71,-227.97 -0.34,-94.22 19.88,-207.95 -3.74,-293.81l-7.21 -78.67 -21.7 164.09 -186.07 -10.96c0.05,-10.51 5.7,-73.67 3.25,-93.08 -8.2,-65.03 -3.3,-46.99 -35.75,-79.06l-8.45 230z"/>
   <path class="fil33" d="M11759.93 6037.24c-23.4,22.6 -37.93,29.78 -61.83,52.02 -173.95,161.93 -291.99,268.7 -434.74,471.8 -111.07,158.03 -298.6,446.69 -358.29,672.4 43.07,-20.3 189.99,-283.24 218.53,-326.88 72.18,-110.38 141.84,-212.74 217.92,-316.51l361.87 -447c50.1,-48.1 78.34,-97.53 123.33,-136.57 -41.41,61.06 -7.1,33.21 -66.79,30.74z"/>
   <path class="fil34" d="M14329.04 4893.99c-127.15,-32.15 -175.12,-34.65 -276.24,-125.47 -231.81,-208.21 -341.43,-485.01 -399.46,-815.04 -42.99,-244.45 -32.13,-506.72 22.25,-738.8 49.98,-213.33 117.61,-308.15 258.81,-440.19 4.05,-3.78 25.14,-24.08 25.61,-24.55 16.66,-16.62 12.75,-11.56 26.14,-27.71 -373.26,133.96 -426.83,865.05 -367.02,1248.85 45.33,290.89 182.23,673.03 406.59,841.05 135.02,101.12 239.36,121.64 303.32,81.86z"/>
   <path class="fil16" d="M8416.88 3177.12l14.45 -6.06c1.01,-150.18 -1.05,-275.39 11.33,-424.49 7.04,-84.94 51.66,-297.13 19.62,-356.34 -78.38,159.15 -193.81,634.99 -231.86,846.21 64.56,-5.49 147.7,-22.27 186.46,-59.32z"/>
   <path class="fil26" d="M13771.91 5610.8c-19.56,48.82 -2.38,99.58 14.98,160.29l-3.89 25.74c28.15,-27.73 15.58,5.39 41.96,-54.17l291.26 0 17.31 79.96 45.86 -42.72 -27.11 -346.92c-25.26,24.46 -25.55,15.6 -37.33,80.19 -0.8,4.43 1.35,65.47 1.35,76.43 -0.61,-54.4 18.55,-23.41 -46.27,-34.08l-261.24 2.11c-32.33,-80.65 -7.46,-105.81 -36.88,53.17z"/>
   <path class="fil32" d="M8239.99 6840.71c5.69,65.68 13.84,127.26 21.34,192.32 3.1,26.78 5.41,60 9.37,85.5 8.71,56.1 0.95,42.42 23.4,81.83l26.76 -5.94c5.09,22.66 1.87,30.83 0,47.74 22.25,-45.13 -43.63,-31.92 164.51,-32.93l11.58 -283.89 -27.84 -80.74 -229.12 -3.89z"/>
   <path class="fil35" d="M12745.76 5383.99l-64.69 175.06c1.82,0.88 5.11,0.06 5.64,2.24l85.27 10.88c73.76,2.31 89.67,-19.79 99.73,28.07 35.88,-43.15 25.47,-27.85 42.21,-86.36 27.32,34.01 57.82,-60.33 21.02,93.74 109.47,-10.85 7.59,8.62 69.84,20.45 3.31,0.62 15.15,0.82 18.66,0.88 2.54,0.05 9.41,-0.76 11.61,-0.81 2.36,-0.06 8.31,-1.79 12.42,-1.16l66.94 -258.73c-60.35,10.64 -214.07,-12.61 -312.03,-0.61l-56.62 16.35z"/>
   <path class="fil36" d="M12156.76 3044.37c-812.58,-48.57 -895.42,-252.4 -1357.05,-380.31 247.06,295.55 1118.34,458.42 1357.05,380.31z"/>
   <path class="fil2" d="M11622.15 6098.34c-94.03,110.96 -244.67,178.19 -453.75,480.12 -121.68,175.71 -239.32,415.41 -288.64,663.33 1.29,1.23 3.41,2.14 3.74,3.83 0.28,1.43 3.84,1.8 4.22,1.63 1.39,-0.62 13.74,-9.78 17.35,-13.79 59.69,-225.71 247.22,-514.37 358.29,-672.4 142.75,-203.1 260.79,-309.87 434.74,-471.8 23.9,-22.24 38.43,-29.42 61.83,-52.02 -76.32,10.66 -64.79,34.52 -137.78,61.1z"/>
   <path class="fil26" d="M13141.4 5513.88l-78.88 242.71 80.42 6.06c1.68,67.09 16.41,69.65 -13.67,42.49l212.75 1.81c86.98,11.8 32.04,11.62 29.96,14.28 0,-103.49 44.49,-100.87 48.38,-177.9 -26.42,-19.69 -16.18,-2.05 -16.18,-64.89 -29.89,-28.7 -30.27,35.31 -50.65,-87.92l-13.99 65.34c-29.54,-0.42 -71.11,-3.11 -99.37,-1.34 -101.71,6.36 -62.89,18.87 -62.91,18.9 1.04,-116.18 6.86,-18.38 -35.86,-59.54z"/>
   <path class="fil33" d="M9618.2 8187.17l10.53 -24.66c9.71,-49.86 3.17,-48.61 -8.39,-105.72 -64.14,-316.87 -44.55,-747.04 61.04,-1039.46 -13.67,-43.96 -47.15,-75.2 -87.3,-106.93 -13.77,205.09 -75.54,256.12 -69.93,642.8 3.58,246.92 49.05,407.48 94.05,633.97z"/>
   <path class="fil16" d="M11879.39 2251.06c72.37,51.35 359.84,161.88 468.98,184.23 -6.16,-60.82 -36.68,-143.65 -55.73,-210.7 -19.94,-70.19 -33.45,-173.18 -76.15,-218.34 -28.79,99.8 -0.43,157.16 -74.33,242.92 -130.16,7.73 -205.32,-38.47 -262.77,1.89z"/>
   <path class="fil23" d="M12625.64 6185.4c-44.48,101.53 -143.65,205.14 -172.54,289.73l178.65 -5.73c3.96,-0.33 8.49,-0.91 12.27,-1.3 3.92,-0.41 9.13,-1.15 12.67,-1.57 4.49,-0.53 20.94,-3.14 26.28,-3.83 54.78,-44.31 109.24,-246.82 153.99,-285.57 -55.48,-18.64 -37.14,-7.64 -56.15,-8.65 -4.48,-0.24 -50.8,1.5 -56.42,1.95 -62.82,5.05 -51.23,9.21 -98.75,14.97z"/>
   <path class="fil36" d="M8444.27 3324.26c203.55,9.73 676.18,-137.75 852.7,-251.75 64.95,-41.94 172.55,-116.13 211.5,-184.58 -184.65,61.56 -334.53,171.98 -504.53,248.54 -195.76,88.17 -349.43,121.17 -559.67,187.79z"/>
   <path class="fil37" d="M13434.44 5659.35l2.44 145.79c90.72,37.17 192.21,34.18 289.52,14.15l-12.68 -195.16 -244.73 0c-13.89,20.15 -30.79,65.09 -17.26,73.97l-8.2 -96.67c-17.71,25.42 -24.17,-43.62 -9.09,57.92z"/>
   <path class="fil23" d="M13488.72 6420.02l32.51 60.43 9.79 -69.6c29.08,0.35 77.19,-3.1 100.19,-1.36l67.25 28.66c2.01,1.74 5.38,6.39 8.05,9.6 9.85,-105.32 28.86,-122.53 14.26,-228.68 -3.78,-3.84 -14.49,-9.3 -18.44,-10.71 -69.93,-25.13 -102.98,1.72 -180.17,-11.79l-28.55 -7.77c-4.1,-1.1 -23.81,-9.24 -28.7,-11.51l23.81 242.73z"/>
   <path class="fil38" d="M8645.48 3611.79c-21.93,128.24 -90.26,280.89 -61.67,426.71 4.32,124.5 67.16,113.68 26.53,265.46l25.98 -4.5c42.02,-128.18 51.21,-88.37 25.5,-219.74 -39.61,-202.39 7.48,-376.76 106.8,-547.62l61.88 -95.98c-79.15,40.86 -140.85,96.35 -185.02,175.67z"/>
   <path class="fil8" d="M9683.67 6550.1c31.49,29.36 16.53,19.14 35.42,44.05 19.26,25.4 25.67,30.58 39.32,47.3 -18.61,-89.65 -39.02,-135.2 -22.65,-235.06 5.42,-33.06 18.65,-82.44 32.08,-111.37 28.77,-61.96 41.37,-42.18 44.91,-101.17l-133.24 -14.56c-55.69,130.23 -29.48,240.6 4.16,370.81z"/>
   <path class="fil21" d="M10271.13 5536.6c-16.51,-131.16 56.66,-256.37 180.11,-258.5 71.91,-63.67 200.21,21.37 244.35,63.65 78.3,75.02 82.55,105.38 143.48,196.95 -29.45,-370.84 -480.61,-442.14 -581.27,-130.01 -43.01,133.38 11.24,126.47 13.33,127.91z"/>
   <path class="fil39" d="M10323.5 8533.99l281.51 36.4c15.82,-33.75 33.82,-59.15 35.75,-110.54 -70.02,-17.33 -102.81,-26.51 -182.01,-22.19 -117.95,6.44 -131.86,0.28 -135.25,96.33z"/>
   <path class="fil40" d="M11135.5 3843.38c153.49,-16.25 282,-45.49 449.37,-50.17 163.73,-4.57 322.11,6.16 480.33,2.66 -209.6,-87.7 -742.6,-51.22 -929.7,47.51z"/>
   <path class="fil33" d="M9374.04 10222.01c21.57,-38.32 10.1,0.76 10.42,-50.85 0.18,-27.93 -4.14,-64.92 -5,-94.5 -1.97,-68.05 10.74,-115.74 26.8,-164.54 -17.12,-21.11 -12.48,-18.5 -39.12,-37.14 -45.11,-31.55 -4.23,-13.05 -54.05,-23.87l-33.8 340 94.75 30.9z"/>
   <path class="fil12" d="M11367.37 8500.7l15.19 -38.85c13.46,-36.73 18.44,-64.31 31.38,-103.48 -122.26,-24.4 -204.75,-78.92 -207.09,84 38.67,30.04 93.35,59.1 160.52,58.33z"/>
   <path class="fil15" d="M11292.27 8919.63c37.06,32.26 137.32,32.3 203.66,34.67l-47.64 -222.19 -99.07 -18.85 -18.04 50.8 79.46 68.9 -75.75 84.94c-12.6,1.01 -21.14,-0.32 -42.62,1.73z"/>
   <path class="fil38" d="M10271.13 5536.6l10.15 102.65 128.17 -288.86c72.59,-110.7 59.99,-28.48 41.79,-72.29 -123.45,2.13 -196.62,127.34 -180.11,258.5z"/>
   <path class="fil30" d="M10358.11 8699.9c68.66,13.55 119.35,14.13 181.78,-30.96 54.02,-39.02 17.33,8.02 34.23,-48.42 -69.13,-34.67 -143.38,-35.03 -222.81,-41.29 -48.85,53.01 -39.78,62.89 6.8,120.67z"/>
   <path class="fil38" d="M10220.64 4467.52c-70.93,49.84 -212.95,110.55 -85.61,240.52l37.17 -96.76c29.21,-66.21 8.38,-31.52 61.18,-67.23 52.75,-35.67 90.32,-80.78 57.79,-176.17l-70.53 99.64z"/>
   <path class="fil30" d="M10408.08 8900.12l190.51 -8.64 -41.35 -181.38c-117.31,38.64 -116.47,58.74 -149.16,190.02z"/>
   <path class="fil38" d="M10957.62 4146.14l-67.64 -4.1 -51.18 0.81c-33.98,100.47 -135.03,231.81 -58.65,383.92 14.6,-274.87 98.61,-226.94 177.47,-380.63z"/>
   <path class="fil38" d="M8629.04 4500.07l-38.61 4.34c-3.16,4.02 -8.01,4.68 -9.88,11.74l-64.11 58.89c-22.78,22.69 -38.98,53.02 -52.45,92.77 -27.96,82.56 -28.08,163.88 0.83,234.08 2.1,-70.49 11.84,-153.19 46.72,-202.4 52.03,-73.41 98.64,-89.73 131.37,-124.18l-13.87 -75.24z"/>
   <path class="fil41" d="M8732.35 4166.63l806.8 -128.45c-232.18,-17.54 -615.27,45.21 -806.8,128.45z"/>
   <path class="fil36" d="M10135.03 4708.04c-127.34,-129.97 14.68,-190.68 85.61,-240.52 -246.63,-1.74 -268.18,301.39 53.86,336.5l-43.84 -31.6c-50.55,-27.59 -40.01,-4.27 -95.63,-64.38z"/>
   <path class="fil15" d="M11367.37 8500.7c0.71,0.74 8.12,59.09 92.29,22.71 41.49,-17.93 65.41,-38.44 88.25,-64.7 -47.17,-74.11 -71.61,-58.61 -133.97,-100.34 -12.94,39.17 -17.92,66.75 -31.38,103.48l-15.19 38.85z"/>
   <path class="fil12" d="M11292.27 8919.63c21.48,-2.05 30.02,-0.72 42.62,-1.73l75.75 -84.94 -79.46 -68.9 18.04 -50.8c-42.56,13.72 -42.61,-28.4 -64.17,103.83 -19.07,116.97 -14.33,96.77 7.22,102.54z"/>
   <path class="fil40" d="M10985.43 3727.49l97.73 -473.98c-78.71,107.05 -135.24,307.92 -97.73,473.98z"/>
   <path class="fil12" d="M11348.27 8664.62l39.68 -9.4c-15.85,-63.08 -7.9,-46.5 -57.93,-67.68l19.36 -29.79c-30.89,-22.05 -63.83,-32.65 -111.21,-29.57l-0.97 109.62c46.9,25.45 48.51,31.95 111.07,26.82z"/>
   <path class="fil15" d="M11348.27 8664.62c27.07,18.42 -25.83,1.65 34.9,19.36 141.69,41.32 109.32,-47.93 87.14,-102.69l-120.93 -23.54 -19.36 29.79c50.03,21.18 42.08,4.6 57.93,67.68l-39.68 9.4z"/>
   <path class="fil42" d="M8583.81 4038.5c-28.59,-145.82 39.74,-298.47 61.67,-426.71 -90.48,92.87 -114.38,245.17 -87.9,412.92l26.23 13.79z"/>
   <path class="fil38" d="M10446.77 6351.13l28.91 26.05c49.22,-66.34 48.18,-81.11 28.2,-170.47l-73.86 5.1 16.75 139.32z"/>
   <path class="fil22" d="M8627.22 4798.94l-19.73 53.54c-0.25,1.51 0.27,6.68 0.16,7.86 -0.11,1.15 0.68,5.05 1.18,7.54 53.01,-79.47 183.7,-121.7 228.47,-201.86 -110.76,27.54 -145.92,86.06 -210.08,132.92z"/>
   <path class="fil40" d="M12199.14 4252.28l-33.44 38.47c-2.23,2.47 -6.69,7.5 -8.56,9.6 -1.98,2.22 -7.02,13.57 -8.47,10.69 -1.49,-2.96 -5.64,7.46 -8.61,10.66l54.77 -21.65c69.39,-74.02 158,-65.05 217.19,-144.29 -110.71,9.57 -138.67,57.13 -212.88,96.52z"/>
   <path class="fil21" d="M10811.3 2773.23c-32.93,-15.01 -77.54,-20.7 -117.29,-33.69 -57.17,-18.67 -80.32,-39.58 -126.2,-59.53 53.78,86.88 110.32,128.46 243.49,93.22z"/>
   <path class="fil40" d="M12241.8 4421.67c121,-84.22 151.03,-64.36 211.06,-147.39 -103.67,18.88 -158.38,70.99 -211.06,147.39z"/>
   <path class="fil43" d="M8499.4 4800.62c42.5,-34.37 145.02,-130.93 171.77,-180.32 -84.01,25.66 -122.9,66.33 -171.77,180.32z"/>
   <path class="fil43" d="M9580.29 2946.29c93.42,-16.7 102.28,-35.11 117.07,-123.01 -36.47,26.25 -35.19,32.27 -58.36,57.41 -17.57,19.07 -7.86,6.84 -24.34,24.45l-34.37 41.15z"/>
   <path class="fil44" d="M10406.84 2033.2c29.07,-13.42 5.28,12.51 41.95,-25.05 39.22,-40.18 10.31,-9.99 24.61,-40.96l-66.56 66.01z"/>
  </g>
 </g>
</svg>
