<svg width="1440" height="800" viewBox="0 0 1440 800" fill="none" xmlns="http://www.w3.org/2000/svg">
<g clip-path="url(#clip0_12_57)">
<path fill-rule="evenodd" clip-rule="evenodd" d="M-260.442 3.07031H-191.119V71.7022H-260.442V3.07031ZM1689.4 3.07031H1758.72V71.7022H1689.4V3.07031ZM1619.76 3.07031H1689.09V71.7022H1619.76V3.07031ZM1550.13 3.07031H1619.45V71.7022H1550.13V3.07031ZM1480.49 3.07031H1549.81V71.7022H1480.49V3.07031ZM1410.85 3.07031H1480.18V71.7022H1410.85V3.07031ZM1341.22 3.07031H1410.54V71.7022H1341.22V3.07031ZM1271.58 3.07031H1340.9V71.7022H1271.58V3.07031ZM1201.94 3.07031H1271.26V71.7022H1201.94V3.07031ZM1132.3 3.07031H1201.63V71.7022H1132.3V3.07031ZM1062.67 3.07031H1131.99V71.7022H1062.67V3.07031ZM993.03 3.07031H1062.35V71.7022H993.03V3.07031ZM923.392 3.07031H992.714V71.7022H923.392V3.07031ZM853.755 3.07031H923.077V71.7022H853.755V3.07031ZM784.117 3.07031H853.44V71.7022H784.117V3.07031ZM714.48 3.07031H783.803V71.7022H714.48V3.07031ZM644.843 3.07031H714.165V71.7022H644.843V3.07031ZM575.206 3.07031H644.528V71.7022H575.206V3.07031ZM505.568 3.07031H574.891V71.7022H505.568V3.07031ZM435.931 3.07031H505.254V71.7022H435.931V3.07031ZM366.294 3.07031H435.616V71.7022H366.294V3.07031ZM296.657 3.07031H365.979V71.7022H296.657V3.07031ZM227.019 3.07031H296.341V71.7022H227.019V3.07031ZM157.382 3.07031H226.704V71.7022H157.382V3.07031ZM87.7446 3.07031H157.067V71.7022H87.7446V3.07031ZM18.1076 3.07031H87.4299V71.7022H18.1076V3.07031ZM-51.53 3.07031H17.7922V71.7022H-51.53V3.07031ZM-121.167 3.07031H-51.8447V71.7022H-121.167V3.07031ZM-190.805 3.07031H-121.482V71.7022H-190.805V3.07031Z" stroke="#B6B6B7" stroke-opacity="0.8" stroke-width="0.377953" stroke-miterlimit="22.9256"/>
<path fill-rule="evenodd" clip-rule="evenodd" d="M-260.442 71.0592H-191.119V139.691H-260.442V71.0592ZM1689.4 71.0592H1758.72V139.691H1689.4V71.0592ZM1619.76 71.0592H1689.09V139.691H1619.76V71.0592ZM1550.13 71.0592H1619.45V139.691H1550.13V71.0592ZM1480.49 71.0592H1549.81V139.691H1480.49V71.0592ZM1410.85 71.0592H1480.18V139.691H1410.85V71.0592ZM1341.22 71.0592H1410.54V139.691H1341.22V71.0592ZM1271.58 71.0592H1340.9V139.691H1271.58V71.0592ZM1201.94 71.0592H1271.26V139.691H1201.94V71.0592ZM1132.3 71.0592H1201.63V139.691H1132.3V71.0592ZM1062.67 71.0592H1131.99V139.691H1062.67V71.0592ZM993.03 71.0592H1062.35V139.691H993.03V71.0592ZM923.392 71.0592H992.714V139.691H923.392V71.0592ZM853.755 71.0592H923.077V139.691H853.755V71.0592ZM784.117 71.0592H853.44V139.691H784.117V71.0592ZM714.48 71.0592H783.803V139.691H714.48V71.0592ZM644.843 71.0592H714.165V139.691H644.843V71.0592ZM575.206 71.0592H644.528V139.691H575.206V71.0592ZM505.568 71.0592H574.891V139.691H505.568V71.0592ZM435.931 71.0592H505.254V139.691H435.931V71.0592ZM366.294 71.0592H435.616V139.691H366.294V71.0592ZM296.657 71.0592H365.979V139.691H296.657V71.0592ZM227.019 71.0592H296.341V139.691H227.019V71.0592ZM157.382 71.0592H226.704V139.691H157.382V71.0592ZM87.7446 71.0592H157.067V139.691H87.7446V71.0592ZM18.1076 71.0592H87.4299V139.691H18.1076V71.0592ZM-51.53 71.0592H17.7922V139.691H-51.53V71.0592ZM-121.167 71.0592H-51.8447V139.691H-121.167V71.0592ZM-190.805 71.0592H-121.482V139.691H-190.805V71.0592Z" stroke="#B6B6B7" stroke-opacity="0.8" stroke-width="0.377953" stroke-miterlimit="22.9256"/>
<path fill-rule="evenodd" clip-rule="evenodd" d="M-260.442 139.048H-191.119V207.679H-260.442V139.048ZM1689.4 139.048H1758.72V207.679H1689.4V139.048ZM1619.76 139.048H1689.09V207.679H1619.76V139.048ZM1550.13 139.048H1619.45V207.679H1550.13V139.048ZM1480.49 139.048H1549.81V207.679H1480.49V139.048ZM1410.85 139.048H1480.18V207.679H1410.85V139.048ZM1341.22 139.048H1410.54V207.679H1341.22V139.048ZM1271.58 139.048H1340.9V207.679H1271.58V139.048ZM1201.94 139.048H1271.26V207.679H1201.94V139.048ZM1132.3 139.048H1201.63V207.679H1132.3V139.048ZM1062.67 139.048H1131.99V207.679H1062.67V139.048ZM993.03 139.048H1062.35V207.679H993.03V139.048ZM923.392 139.048H992.714V207.679H923.392V139.048ZM853.755 139.048H923.077V207.679H853.755V139.048ZM784.117 139.048H853.44V207.679H784.117V139.048ZM714.48 139.048H783.803V207.679H714.48V139.048ZM644.843 139.048H714.165V207.679H644.843V139.048ZM575.206 139.048H644.528V207.679H575.206V139.048ZM505.568 139.048H574.891V207.679H505.568V139.048ZM435.931 139.048H505.254V207.679H435.931V139.048ZM366.294 139.048H435.616V207.679H366.294V139.048ZM296.657 139.048H365.979V207.679H296.657V139.048ZM227.019 139.048H296.341V207.679H227.019V139.048ZM157.382 139.048H226.704V207.679H157.382V139.048ZM87.7446 139.048H157.067V207.679H87.7446V139.048ZM18.1076 139.048H87.4299V207.679H18.1076V139.048ZM-51.53 139.048H17.7922V207.679H-51.53V139.048ZM-121.167 139.048H-51.8447V207.679H-121.167V139.048ZM-190.805 139.048H-121.482V207.679H-190.805V139.048Z" stroke="#B6B6B7" stroke-opacity="0.8" stroke-width="0.377953" stroke-miterlimit="22.9256"/>
<path fill-rule="evenodd" clip-rule="evenodd" d="M-260.442 207.036H-191.119V275.668H-260.442V207.036ZM1689.4 207.036H1758.72V275.668H1689.4V207.036ZM1619.76 207.036H1689.09V275.668H1619.76V207.036ZM1550.13 207.036H1619.45V275.668H1550.13V207.036ZM1480.49 207.036H1549.81V275.668H1480.49V207.036ZM1410.85 207.036H1480.18V275.668H1410.85V207.036ZM1341.22 207.036H1410.54V275.668H1341.22V207.036ZM1271.58 207.036H1340.9V275.668H1271.58V207.036ZM1201.94 207.036H1271.26V275.668H1201.94V207.036ZM1132.3 207.036H1201.63V275.668H1132.3V207.036ZM1062.67 207.036H1131.99V275.668H1062.67V207.036ZM993.03 207.036H1062.35V275.668H993.03V207.036ZM923.392 207.036H992.714V275.668H923.392V207.036ZM853.755 207.036H923.077V275.668H853.755V207.036ZM784.117 207.036H853.44V275.668H784.117V207.036ZM714.48 207.036H783.803V275.668H714.48V207.036ZM644.843 207.036H714.165V275.668H644.843V207.036ZM575.206 207.036H644.528V275.668H575.206V207.036ZM505.568 207.036H574.891V275.668H505.568V207.036ZM435.931 207.036H505.254V275.668H435.931V207.036ZM366.294 207.036H435.616V275.668H366.294V207.036ZM296.657 207.036H365.979V275.668H296.657V207.036ZM227.019 207.036H296.341V275.668H227.019V207.036ZM157.382 207.036H226.704V275.668H157.382V207.036ZM87.7446 207.036H157.067V275.668H87.7446V207.036ZM18.1076 207.036H87.4299V275.668H18.1076V207.036ZM-51.53 207.036H17.7922V275.668H-51.53V207.036ZM-121.167 207.036H-51.8447V275.668H-121.167V207.036ZM-190.805 207.036H-121.482V275.668H-190.805V207.036Z" stroke="#B6B6B7" stroke-opacity="0.8" stroke-width="0.377953" stroke-miterlimit="22.9256"/>
<path fill-rule="evenodd" clip-rule="evenodd" d="M-260.442 275.025H-191.119V343.657H-260.442V275.025ZM1689.4 275.025H1758.72V343.657H1689.4V275.025ZM1619.76 275.025H1689.09V343.657H1619.76V275.025ZM1550.13 275.025H1619.45V343.657H1550.13V275.025ZM1480.49 275.025H1549.81V343.657H1480.49V275.025ZM1410.85 275.025H1480.18V343.657H1410.85V275.025ZM1341.22 275.025H1410.54V343.657H1341.22V275.025ZM1271.58 275.025H1340.9V343.657H1271.58V275.025ZM1201.94 275.025H1271.26V343.657H1201.94V275.025ZM1132.3 275.025H1201.63V343.657H1132.3V275.025ZM1062.67 275.025H1131.99V343.657H1062.67V275.025ZM993.03 275.025H1062.35V343.657H993.03V275.025ZM923.392 275.025H992.714V343.657H923.392V275.025ZM853.755 275.025H923.077V343.657H853.755V275.025ZM784.117 275.025H853.44V343.657H784.117V275.025ZM714.48 275.025H783.803V343.657H714.48V275.025ZM644.843 275.025H714.165V343.657H644.843V275.025ZM575.206 275.025H644.528V343.657H575.206V275.025ZM505.568 275.025H574.891V343.657H505.568V275.025ZM435.931 275.025H505.254V343.657H435.931V275.025ZM366.294 275.025H435.616V343.657H366.294V275.025ZM296.657 275.025H365.979V343.657H296.657V275.025ZM227.019 275.025H296.341V343.657H227.019V275.025ZM157.382 275.025H226.704V343.657H157.382V275.025ZM87.7446 275.025H157.067V343.657H87.7446V275.025ZM18.1076 275.025H87.4299V343.657H18.1076V275.025ZM-51.53 275.025H17.7922V343.657H-51.53V275.025ZM-121.167 275.025H-51.8447V343.657H-121.167V275.025ZM-190.805 275.025H-121.482V343.657H-190.805V275.025Z" stroke="#B6B6B7" stroke-opacity="0.8" stroke-width="0.377953" stroke-miterlimit="22.9256"/>
<path fill-rule="evenodd" clip-rule="evenodd" d="M-260.442 343.014H-191.119V411.646H-260.442V343.014ZM1689.4 343.014H1758.72V411.646H1689.4V343.014ZM1619.76 343.014H1689.09V411.646H1619.76V343.014ZM1550.13 343.014H1619.45V411.646H1550.13V343.014ZM1480.49 343.014H1549.81V411.646H1480.49V343.014ZM1410.85 343.014H1480.18V411.646H1410.85V343.014ZM1341.22 343.014H1410.54V411.646H1341.22V343.014ZM1271.58 343.014H1340.9V411.646H1271.58V343.014ZM1201.94 343.014H1271.26V411.646H1201.94V343.014ZM1132.3 343.014H1201.63V411.646H1132.3V343.014ZM1062.67 343.014H1131.99V411.646H1062.67V343.014ZM993.03 343.014H1062.35V411.646H993.03V343.014ZM923.392 343.014H992.714V411.646H923.392V343.014ZM853.755 343.014H923.077V411.646H853.755V343.014ZM784.117 343.014H853.44V411.646H784.117V343.014ZM714.48 343.014H783.803V411.646H714.48V343.014ZM644.843 343.014H714.165V411.646H644.843V343.014ZM575.206 343.014H644.528V411.646H575.206V343.014ZM505.568 343.014H574.891V411.646H505.568V343.014ZM435.931 343.014H505.254V411.646H435.931V343.014ZM366.294 343.014H435.616V411.646H366.294V343.014ZM296.657 343.014H365.979V411.646H296.657V343.014ZM227.019 343.014H296.341V411.646H227.019V343.014ZM157.382 343.014H226.704V411.646H157.382V343.014ZM87.7446 343.014H157.067V411.646H87.7446V343.014ZM18.1076 343.014H87.4299V411.646H18.1076V343.014ZM-51.53 343.014H17.7922V411.646H-51.53V343.014ZM-121.167 343.014H-51.8447V411.646H-121.167V343.014ZM-190.805 343.014H-121.482V411.646H-190.805V343.014Z" stroke="#B6B6B7" stroke-opacity="0.8" stroke-width="0.377953" stroke-miterlimit="22.9256"/>
<path fill-rule="evenodd" clip-rule="evenodd" d="M-260.442 411.003H-191.119V479.635H-260.442V411.003ZM1689.4 411.003H1758.72V479.635H1689.4V411.003ZM1619.76 411.003H1689.09V479.635H1619.76V411.003ZM1550.13 411.003H1619.45V479.635H1550.13V411.003ZM1480.49 411.003H1549.81V479.635H1480.49V411.003ZM1410.85 411.003H1480.18V479.635H1410.85V411.003ZM1341.22 411.003H1410.54V479.635H1341.22V411.003ZM1271.58 411.003H1340.9V479.635H1271.58V411.003ZM1201.94 411.003H1271.26V479.635H1201.94V411.003ZM1132.3 411.003H1201.63V479.635H1132.3V411.003ZM1062.67 411.003H1131.99V479.635H1062.67V411.003ZM993.03 411.003H1062.35V479.635H993.03V411.003ZM923.392 411.003H992.714V479.635H923.392V411.003ZM853.755 411.003H923.077V479.635H853.755V411.003ZM784.117 411.003H853.44V479.635H784.117V411.003ZM714.48 411.003H783.803V479.635H714.48V411.003ZM644.843 411.003H714.165V479.635H644.843V411.003ZM575.206 411.003H644.528V479.635H575.206V411.003ZM505.568 411.003H574.891V479.635H505.568V411.003ZM435.931 411.003H505.254V479.635H435.931V411.003ZM366.294 411.003H435.616V479.635H366.294V411.003ZM296.657 411.003H365.979V479.635H296.657V411.003ZM227.019 411.003H296.341V479.635H227.019V411.003ZM157.382 411.003H226.704V479.635H157.382V411.003ZM87.7446 411.003H157.067V479.635H87.7446V411.003ZM18.1076 411.003H87.4299V479.635H18.1076V411.003ZM-51.53 411.003H17.7922V479.635H-51.53V411.003ZM-121.167 411.003H-51.8447V479.635H-121.167V411.003ZM-190.805 411.003H-121.482V479.635H-190.805V411.003Z" stroke="#B6B6B7" stroke-opacity="0.8" stroke-width="0.377953" stroke-miterlimit="22.9256"/>
<path fill-rule="evenodd" clip-rule="evenodd" d="M-260.442 478.992H-191.119V547.623H-260.442V478.992ZM1689.4 478.992H1758.72V547.623H1689.4V478.992ZM1619.76 478.992H1689.09V547.623H1619.76V478.992ZM1550.13 478.992H1619.45V547.623H1550.13V478.992ZM1480.49 478.992H1549.81V547.623H1480.49V478.992ZM1410.85 478.992H1480.18V547.623H1410.85V478.992ZM1341.22 478.992H1410.54V547.623H1341.22V478.992ZM1271.58 478.992H1340.9V547.623H1271.58V478.992ZM1201.94 478.992H1271.26V547.623H1201.94V478.992ZM1132.3 478.992H1201.63V547.623H1132.3V478.992ZM1062.67 478.992H1131.99V547.623H1062.67V478.992ZM993.03 478.992H1062.35V547.623H993.03V478.992ZM923.392 478.992H992.714V547.623H923.392V478.992ZM853.755 478.992H923.077V547.623H853.755V478.992ZM784.117 478.992H853.44V547.623H784.117V478.992ZM714.48 478.992H783.803V547.623H714.48V478.992ZM644.843 478.992H714.165V547.623H644.843V478.992ZM575.206 478.992H644.528V547.623H575.206V478.992ZM505.568 478.992H574.891V547.623H505.568V478.992ZM435.931 478.992H505.254V547.623H435.931V478.992ZM366.294 478.992H435.616V547.623H366.294V478.992ZM296.657 478.992H365.979V547.623H296.657V478.992ZM227.019 478.992H296.341V547.623H227.019V478.992ZM157.382 478.992H226.704V547.623H157.382V478.992ZM87.7446 478.992H157.067V547.623H87.7446V478.992ZM18.1076 478.992H87.4299V547.623H18.1076V478.992ZM-51.53 478.992H17.7922V547.623H-51.53V478.992ZM-121.167 478.992H-51.8447V547.623H-121.167V478.992ZM-190.805 478.992H-121.482V547.623H-190.805V478.992Z" stroke="#B6B6B7" stroke-opacity="0.8" stroke-width="0.377953" stroke-miterlimit="22.9256"/>
<path fill-rule="evenodd" clip-rule="evenodd" d="M-260.442 546.98H-191.119V615.612H-260.442V546.98ZM1689.4 546.98H1758.72V615.612H1689.4V546.98ZM1619.76 546.98H1689.09V615.612H1619.76V546.98ZM1550.13 546.98H1619.45V615.612H1550.13V546.98ZM1480.49 546.98H1549.81V615.612H1480.49V546.98ZM1410.85 546.98H1480.18V615.612H1410.85V546.98ZM1341.22 546.98H1410.54V615.612H1341.22V546.98ZM1271.58 546.98H1340.9V615.612H1271.58V546.98ZM1201.94 546.98H1271.26V615.612H1201.94V546.98ZM1132.3 546.98H1201.63V615.612H1132.3V546.98ZM1062.67 546.98H1131.99V615.612H1062.67V546.98ZM993.03 546.98H1062.35V615.612H993.03V546.98ZM923.392 546.98H992.714V615.612H923.392V546.98ZM853.755 546.98H923.077V615.612H853.755V546.98ZM784.117 546.98H853.44V615.612H784.117V546.98ZM714.48 546.98H783.803V615.612H714.48V546.98ZM644.843 546.98H714.165V615.612H644.843V546.98ZM575.206 546.98H644.528V615.612H575.206V546.98ZM505.568 546.98H574.891V615.612H505.568V546.98ZM435.931 546.98H505.254V615.612H435.931V546.98ZM366.294 546.98H435.616V615.612H366.294V546.98ZM296.657 546.98H365.979V615.612H296.657V546.98ZM227.019 546.98H296.341V615.612H227.019V546.98ZM157.382 546.98H226.704V615.612H157.382V546.98ZM87.7446 546.98H157.067V615.612H87.7446V546.98ZM18.1076 546.98H87.4299V615.612H18.1076V546.98ZM-51.53 546.98H17.7922V615.612H-51.53V546.98ZM-121.167 546.98H-51.8447V615.612H-121.167V546.98ZM-190.805 546.98H-121.482V615.612H-190.805V546.98Z" stroke="#B6B6B7" stroke-opacity="0.8" stroke-width="0.377953" stroke-miterlimit="22.9256"/>
<path fill-rule="evenodd" clip-rule="evenodd" d="M-260.442 614.969H-191.119V683.601H-260.442V614.969ZM1689.4 614.969H1758.72V683.601H1689.4V614.969ZM1619.76 614.969H1689.09V683.601H1619.76V614.969ZM1550.13 614.969H1619.45V683.601H1550.13V614.969ZM1480.49 614.969H1549.81V683.601H1480.49V614.969ZM1410.85 614.969H1480.18V683.601H1410.85V614.969ZM1341.22 614.969H1410.54V683.601H1341.22V614.969ZM1271.58 614.969H1340.9V683.601H1271.58V614.969ZM1201.94 614.969H1271.26V683.601H1201.94V614.969ZM1132.3 614.969H1201.63V683.601H1132.3V614.969ZM1062.67 614.969H1131.99V683.601H1062.67V614.969ZM993.03 614.969H1062.35V683.601H993.03V614.969ZM923.392 614.969H992.714V683.601H923.392V614.969ZM853.755 614.969H923.077V683.601H853.755V614.969ZM784.117 614.969H853.44V683.601H784.117V614.969ZM714.48 614.969H783.803V683.601H714.48V614.969ZM644.843 614.969H714.165V683.601H644.843V614.969ZM575.206 614.969H644.528V683.601H575.206V614.969ZM505.568 614.969H574.891V683.601H505.568V614.969ZM435.931 614.969H505.254V683.601H435.931V614.969ZM366.294 614.969H435.616V683.601H366.294V614.969ZM296.657 614.969H365.979V683.601H296.657V614.969ZM227.019 614.969H296.341V683.601H227.019V614.969ZM157.382 614.969H226.704V683.601H157.382V614.969ZM87.7446 614.969H157.067V683.601H87.7446V614.969ZM18.1076 614.969H87.4299V683.601H18.1076V614.969ZM-51.53 614.969H17.7922V683.601H-51.53V614.969ZM-121.167 614.969H-51.8447V683.601H-121.167V614.969ZM-190.805 614.969H-121.482V683.601H-190.805V614.969Z" stroke="#B6B6B7" stroke-opacity="0.8" stroke-width="0.377953" stroke-miterlimit="22.9256"/>
<path fill-rule="evenodd" clip-rule="evenodd" d="M-260.442 682.958H-191.119V751.59H-260.442V682.958ZM1689.4 682.958H1758.72V751.59H1689.4V682.958ZM1619.76 682.958H1689.09V751.59H1619.76V682.958ZM1550.13 682.958H1619.45V751.59H1550.13V682.958ZM1480.49 682.958H1549.81V751.59H1480.49V682.958ZM1410.85 682.958H1480.18V751.59H1410.85V682.958ZM1341.22 682.958H1410.54V751.59H1341.22V682.958ZM1271.58 682.958H1340.9V751.59H1271.58V682.958ZM1201.94 682.958H1271.26V751.59H1201.94V682.958ZM1132.3 682.958H1201.63V751.59H1132.3V682.958ZM1062.67 682.958H1131.99V751.59H1062.67V682.958ZM993.03 682.958H1062.35V751.59H993.03V682.958ZM923.392 682.958H992.714V751.59H923.392V682.958ZM853.755 682.958H923.077V751.59H853.755V682.958ZM784.117 682.958H853.44V751.59H784.117V682.958ZM714.48 682.958H783.803V751.59H714.48V682.958ZM644.843 682.958H714.165V751.59H644.843V682.958ZM575.206 682.958H644.528V751.59H575.206V682.958ZM505.568 682.958H574.891V751.59H505.568V682.958ZM435.931 682.958H505.254V751.59H435.931V682.958ZM366.294 682.958H435.616V751.59H366.294V682.958ZM296.657 682.958H365.979V751.59H296.657V682.958ZM227.019 682.958H296.341V751.59H227.019V682.958ZM157.382 682.958H226.704V751.59H157.382V682.958ZM87.7446 682.958H157.067V751.59H87.7446V682.958ZM18.1076 682.958H87.4299V751.59H18.1076V682.958ZM-51.53 682.958H17.7922V751.59H-51.53V682.958ZM-121.167 682.958H-51.8447V751.59H-121.167V682.958ZM-190.805 682.958H-121.482V751.59H-190.805V682.958Z" stroke="#B6B6B7" stroke-opacity="0.8" stroke-width="0.377953" stroke-miterlimit="22.9256"/>
<path fill-rule="evenodd" clip-rule="evenodd" d="M-260.442 750.947H-191.119V819.578H-260.442V750.947ZM1689.4 750.947H1758.72V819.578H1689.4V750.947ZM1619.76 750.947H1689.09V819.578H1619.76V750.947ZM1550.13 750.947H1619.45V819.578H1550.13V750.947ZM1480.49 750.947H1549.81V819.578H1480.49V750.947ZM1410.85 750.947H1480.18V819.578H1410.85V750.947ZM1341.22 750.947H1410.54V819.578H1341.22V750.947ZM1271.58 750.947H1340.9V819.578H1271.58V750.947ZM1201.94 750.947H1271.26V819.578H1201.94V750.947ZM1132.3 750.947H1201.63V819.578H1132.3V750.947ZM1062.67 750.947H1131.99V819.578H1062.67V750.947ZM993.03 750.947H1062.35V819.578H993.03V750.947ZM923.392 750.947H992.714V819.578H923.392V750.947ZM853.755 750.947H923.077V819.578H853.755V750.947ZM784.117 750.947H853.44V819.578H784.117V750.947ZM714.48 750.947H783.803V819.578H714.48V750.947ZM644.843 750.947H714.165V819.578H644.843V750.947ZM575.206 750.947H644.528V819.578H575.206V750.947ZM505.568 750.947H574.891V819.578H505.568V750.947ZM435.931 750.947H505.254V819.578H435.931V750.947ZM366.294 750.947H435.616V819.578H366.294V750.947ZM296.657 750.947H365.979V819.578H296.657V750.947ZM227.019 750.947H296.341V819.578H227.019V750.947ZM157.382 750.947H226.704V819.578H157.382V750.947ZM87.7446 750.947H157.067V819.578H87.7446V750.947ZM18.1076 750.947H87.4299V819.578H18.1076V750.947ZM-51.53 750.947H17.7922V819.578H-51.53V750.947ZM-121.167 750.947H-51.8447V819.578H-121.167V750.947ZM-190.805 750.947H-121.482V819.578H-190.805V750.947Z" stroke="#B6B6B7" stroke-opacity="0.8" stroke-width="0.377953" stroke-miterlimit="22.9256"/>
<path d="M1440 74H0V1373H1440V74Z" fill="url(#paint0_linear_12_57)"/>
</g>
<defs>
<linearGradient id="paint0_linear_12_57" x1="762.117" y1="113.244" x2="762.122" y2="1357.3" gradientUnits="userSpaceOnUse">
<stop stop-color="#FEFEFE" stop-opacity="0"/>
<stop offset="0.14902" stop-color="#FEFEFE" stop-opacity="0.501961"/>
<stop offset="1" stop-color="#FEFEFE"/>
</linearGradient>
<clipPath id="clip0_12_57">
<rect width="1440" height="800" fill="white"/>
</clipPath>
</defs>
</svg>
