<?xml version="1.0" encoding="UTF-8"?>
<!DOCTYPE svg PUBLIC "-//W3C//DTD SVG 1.1//EN" "http://www.w3.org/Graphics/SVG/1.1/DTD/svg11.dtd">
<!-- Creator: CorelDRAW -->
<svg xmlns="http://www.w3.org/2000/svg" xml:space="preserve" width="135.485mm" height="135.485mm" version="1.1" style="shape-rendering:geometricPrecision; text-rendering:geometricPrecision; image-rendering:optimizeQuality; fill-rule:evenodd; clip-rule:evenodd"
viewBox="0 0 14526.87 14526.87"
 xmlns:xlink="http://www.w3.org/1999/xlink"
 xmlns:xodm="http://www.corel.com/coreldraw/odm/2003">
 <defs>
  <style type="text/css">
   <![CDATA[
    .fil0 {fill:#41A4EE}
    .fil1 {fill:#FEFEFF}
   ]]>
  </style>
 </defs>
 <g id="Layer_x0020_1">
  <metadata id="CorelCorpID_0Corel-Layer"/>
  <g id="_2051011429024">
   <path class="fil0" d="M-0 6979.71l0 567.46c0,1173.41 383.54,2130.18 745.52,2942.95l224.28 428.28c366.88,604.72 650.02,986.56 1151.06,1487.61 465.56,465.55 920.32,808.08 1470.06,1140.23 192.05,116.03 384.6,201.75 579.86,299.69 669.91,336.02 1833.99,680.94 2837.29,680.94 1503.83,0 2221.89,-165.73 3465.09,-734.09 74.46,-34.04 74.19,-39.34 147.91,-79.06 1547.26,-833.52 2452.21,-1817.22 3224.85,-3357.63 336.02,-669.91 680.94,-1833.99 680.94,-2837.29l0 -510.71c0,-982.23 -338.16,-2155.43 -671.47,-2818.39l-462.09 -843.05c-364.47,-610.51 -1094.89,-1401.78 -1679.25,-1838.98 -1196.12,-894.92 -2641.14,-1507.67 -4223.63,-1507.67l-510.71 0c-1037.44,0 -2345.24,402.84 -3094.27,821.18 -457.3,255.41 -917.84,523.96 -1310.15,874.55 -457.33,408.68 -491.9,463.46 -865.77,864.97 -985.63,1058.48 -1709.52,3024.3 -1709.52,4419z"/>
   <path class="fil1" d="M6829.56 7459.58c-2971.77,358.58 -3510.48,3466.77 -3255.85,3890.1 106.82,177.59 281.72,170.85 540.3,170.02l5078.78 -0.12c460.21,0 997.28,25.66 1447.95,-0.76 769.41,-45.1 138.97,-1709.71 -66.96,-2089.69 -595.89,-1099.6 -1884.57,-2193.94 -3744.22,-1969.55z"/>
   <path class="fil1" d="M7032.17 3021.17c-1096.48,126.94 -2027.64,1100.62 -1883.8,2352.65 125.21,1089.88 1109.67,2020.14 2356.1,1875.99 1089.69,-126.02 2016.87,-1108.69 1872.78,-2357.67 -125.15,-1084.89 -1107.97,-2014.2 -2345.09,-1870.97z"/>
  </g>
 </g>
</svg>
